<?xml version="1.0" standalone="yes"?>

<svg version="1.1" viewBox="0.0 0.0 560.0 560.0" fill="none" stroke="none" stroke-linecap="square" stroke-miterlimit="10" xmlns="http://www.w3.org/2000/svg" xmlns:xlink="http://www.w3.org/1999/xlink"><clipPath id="p.0"><path d="m0 0l560.0 0l0 560.0l-560.0 0l0 -560.0z" clip-rule="nonzero"></path></clipPath><g clip-path="url(#p.0)"><path fill="#000000" fill-opacity="0.0" d="m0 0l560.0 0l0 560.0l-560.0 0z" fill-rule="nonzero"></path><path fill="#2ecc71" d="m3.0616229 279.49744l0 0c0 -153.23074 124.21807 -277.44882 277.44882 -277.44882l0 0c73.584015 0 144.1542 29.231133 196.18597 81.26288c52.03174 52.031754 81.26288 122.601944 81.26288 196.18594l0 0c0 153.23077 -124.21808 277.44885 -277.44885 277.44885l0 0c-153.23074 0 -277.44882 -124.21808 -277.44882 -277.44885z" fill-rule="nonzero"></path><path fill="#3498db" d="m124.279526 253.79921l0 0c0 -9.152557 7.4196167 -16.572174 16.572174 -16.572174l14.031509 0l0 0l45.905502 0l90.540695 0c4.3952026 0 8.610413 1.7459869 11.718292 4.853882c3.1078796 3.1078796 4.853882 7.3230743 4.853882 11.718292l0 41.430435l0 0l0 24.858276l0 0c0 9.152557 -7.4196167 16.572174 -16.572174 16.572174l-90.540695 0l-69.40668 44.627563l23.501175 -44.627563l-14.031509 0c-9.152557 0 -16.572174 -7.4196167 -16.572174 -16.572174l0 0l0 -24.858276l0 0z" fill-rule="nonzero"></path><path fill="#9b59b6" d="m215.35301 211.3189l0 0c0 -11.034088 8.944916 -19.979004 19.979004 -19.979004l109.162735 0l0 0l55.346466 0l16.91861 0c5.298767 0 10.380524 2.1049347 14.127289 5.851715c3.7467957 3.7467957 5.851715 8.828537 5.851715 14.127289l0 49.947525l0 0l0 29.968506l0 0c0 11.034088 -8.944885 19.978973 -19.979004 19.978973l-16.91861 0l42.99237 72.10184l-98.33884 -72.10184l-109.162735 0l0 0c-11.034088 0 -19.979004 -8.944885 -19.979004 -19.978973l0 0l0 -29.968506l0 0z" fill-rule="nonzero"></path></g></svg>

