<?xml version="1.0" standalone="yes"?>

<svg version="1.1" viewBox="0.0 0.0 560.0 560.0" fill="none" stroke="none" stroke-linecap="square" stroke-miterlimit="10" xmlns="http://www.w3.org/2000/svg" xmlns:xlink="http://www.w3.org/1999/xlink"><clipPath id="p.0"><path d="m0 0l560.0 0l0 560.0l-560.0 0l0 -560.0z" clip-rule="nonzero"></path></clipPath><g clip-path="url(#p.0)"><path fill="#000000" fill-opacity="0.0" d="m0 0l560.0 0l0 560.0l-560.0 0z" fill-rule="nonzero"></path><path fill="#2ecc71" d="m3.0616229 279.49744l0 0c0 -153.23074 124.21807 -277.44882 277.44882 -277.44882l0 0c73.584015 0 144.1542 29.231133 196.18597 81.26288c52.03174 52.031754 81.26288 122.601944 81.26288 196.18594l0 0c0 153.23077 -124.21808 277.44885 -277.44885 277.44885l0 0c-153.23074 0 -277.44882 -124.21808 -277.44882 -277.44885z" fill-rule="nonzero"></path><path fill="#bdc3c7" d="m125.37017 295.84778l309.25983 0l0 50.70865l-309.25983 0z" fill-rule="nonzero"></path><path fill="#3498db" d="m125.37008 295.84778l233.82675 0l0 50.70865l-233.82675 0z" fill-rule="nonzero"></path><path fill="#000000" fill-opacity="0.0" d="m125.37008 212.37796l309.25983 0l0 83.49606l-309.25983 0z" fill-rule="nonzero"></path><path fill="#000000" d="m156.29297 274.386l-4.921875 0l0 -31.359375q-1.765625 1.6875 -4.65625 3.390625q-2.890625 1.6875 -5.1875 2.53125l0 -4.75q4.140625 -1.9375 7.21875 -4.703125q3.09375 -2.765625 4.375 -5.359375l3.171875 0l0 40.25zm12.613281 -19.765625q0 -7.109375 1.453125 -11.4375q1.46875 -4.34375 4.34375 -6.6875q2.890625 -2.359375 7.265625 -2.359375q3.234375 0 5.65625 1.296875q2.4375 1.296875 4.015625 3.75q1.59375 2.4375 2.5 5.953125q0.90625 3.515625 0.90625 9.484375q0 7.046875 -1.453125 11.390625q-1.453125 4.328125 -4.34375 6.703125q-2.875 2.359375 -7.28125 2.359375q-5.796875 0 -9.09375 -4.15625q-3.96875 -5.015625 -3.96875 -16.296875zm5.0625 0q0 9.859375 2.296875 13.140625q2.3125 3.265625 5.703125 3.265625q3.390625 0 5.703125 -3.28125q2.3125 -3.28125 2.3125 -13.125q0 -9.90625 -2.3125 -13.15625q-2.3125 -3.25 -5.75 -3.25q-3.390625 0 -5.421875 2.859375q-2.53125 3.671875 -2.53125 13.546875zm42.78125 30.953125l-0.546875 -4.625q1.625 0.4375 2.828125 0.4375q1.640625 0 2.625 -0.546875q0.984375 -0.546875 1.609375 -1.53125q0.46875 -0.734375 1.5 -3.65625q0.140625 -0.421875 0.4375 -1.203125l-11.015625 -29.109375l5.296875 0l6.046875 16.828125q1.171875 3.1875 2.109375 6.71875q0.84375 -3.390625 2.015625 -6.609375l6.21875 -16.9375l4.921875 0l-11.046875 29.546875q-1.78125 4.78125 -2.765625 6.578125q-1.3125 2.4375 -3.015625 3.5625q-1.6875 1.140625 -4.046875 1.140625q-1.421875 0 -3.171875 -0.59375zm28.21875 -0.0625l0 -40.171875l4.484375 0l0 3.78125q1.59375 -2.21875 3.578125 -3.328125q2.0 -1.109375 4.84375 -1.109375q3.71875 0 6.5625 1.921875q2.84375 1.90625 4.296875 5.40625q1.453125 3.484375 1.453125 7.640625q0 4.453125 -1.609375 8.03125q-1.59375 3.5625 -4.640625 5.46875q-3.046875 1.890625 -6.40625 1.890625q-2.46875 0 -4.421875 -1.03125q-1.953125 -1.046875 -3.21875 -2.640625l0 14.140625l-4.921875 0zm4.46875 -25.484375q0 5.609375 2.265625 8.296875q2.265625 2.671875 5.5 2.671875q3.28125 0 5.609375 -2.765625q2.34375 -2.78125 2.34375 -8.609375q0 -5.546875 -2.28125 -8.3125q-2.28125 -2.765625 -5.453125 -2.765625q-3.15625 0 -5.578125 2.9375q-2.40625 2.9375 -2.40625 8.546875zm24.847656 -0.15625q0 -8.078125 4.484375 -11.953125q3.75 -3.234375 9.140625 -3.234375q5.984375 0 9.78125 3.9375q3.796875 3.921875 3.796875 10.828125q0 5.609375 -1.6875 8.828125q-1.671875 3.203125 -4.890625 4.984375q-3.203125 1.78125 -7.0 1.78125q-6.109375 0 -9.875 -3.90625q-3.75 -3.921875 -3.75 -11.265625zm5.0625 0q0 5.578125 2.421875 8.359375q2.4375 2.765625 6.140625 2.765625q3.65625 0 6.09375 -2.78125q2.4375 -2.796875 2.4375 -8.515625q0 -5.390625 -2.453125 -8.15625q-2.453125 -2.78125 -6.078125 -2.78125q-3.703125 0 -6.140625 2.765625q-2.421875 2.765625 -2.421875 8.34375zm27.941406 -14.53125l11.34375 0q4.1875 0 6.21875 0.703125q2.046875 0.703125 3.5 2.5625q1.46875 1.859375 1.46875 4.453125q0 2.078125 -0.859375 3.625q-0.859375 1.546875 -2.578125 2.578125q2.046875 0.6875 3.390625 2.5625q1.359375 1.875 1.359375 4.4375q-0.265625 4.125 -2.953125 6.125q-2.671875 2.0 -7.796875 2.0l-13.09375 0l0 -29.046875zm4.921875 12.234375l5.25 0q3.140625 0 4.3125 -0.328125q1.1875 -0.328125 2.109375 -1.328125q0.9375 -1.0 0.9375 -2.390625q0 -2.296875 -1.625 -3.203125q-1.625 -0.90625 -5.5625 -0.90625l-5.421875 0l0 8.15625zm0 12.765625l6.484375 0q4.1875 0 5.734375 -0.96875q1.5625 -0.96875 1.640625 -3.359375q0 -1.390625 -0.90625 -2.578125q-0.890625 -1.1875 -2.34375 -1.5q-1.453125 -0.3125 -4.640625 -0.3125l-5.96875 0l0 8.71875zm44.6875 -5.3125l5.078125 0.640625q-1.203125 4.453125 -4.453125 6.921875q-3.25 2.453125 -8.3125 2.453125q-6.375 0 -10.109375 -3.921875q-3.734375 -3.921875 -3.734375 -11.015625q0 -7.328125 3.765625 -11.375q3.78125 -4.046875 9.796875 -4.046875q5.828125 0 9.515625 3.96875q3.703125 3.96875 3.703125 11.15625q0 0.4375 -0.03125 1.3125l-21.65625 0q0.265625 4.78125 2.703125 7.328125q2.4375 2.546875 6.078125 2.546875q2.703125 0 4.609375 -1.421875q1.921875 -1.421875 3.046875 -4.546875zm-16.171875 -7.953125l16.21875 0q-0.328125 -3.65625 -1.859375 -5.5q-2.34375 -2.84375 -6.09375 -2.84375q-3.390625 0 -5.703125 2.28125q-2.3125 2.265625 -2.5625 6.0625zm27.457031 -11.734375l4.921875 0l0 12.09375l13.6406555 0l0 -12.09375l4.921875 0l0 29.046875l-4.921875 0l0 -12.875l-13.6406555 0l0 12.875l-4.921875 0l0 -29.046875zm30.816437 0l4.921875 0l0 11.359375l6.234375 0q6.09375 0 9.390625 2.359375q3.296875 2.359375 3.296875 6.515625q0 3.640625 -2.75 6.234375q-2.75 2.578125 -8.78125 2.578125l-12.3125 0l0 -29.046875zm4.921875 25.0l5.171875 0q4.671875 0 6.671875 -1.140625q2.0 -1.15625 2.0 -3.59375q0 -1.890625 -1.484375 -3.359375q-1.46875 -1.484375 -6.53125 -1.484375l-5.828125 0l0 9.578125z" fill-rule="nonzero"></path></g></svg>

