<?xml version="1.0" standalone="yes"?>

<svg version="1.1" viewBox="0.0 0.0 560.0 560.0" fill="none" stroke="none" stroke-linecap="square" stroke-miterlimit="10" xmlns="http://www.w3.org/2000/svg" xmlns:xlink="http://www.w3.org/1999/xlink"><clipPath id="p.0"><path d="m0 0l560.0 0l0 560.0l-560.0 0l0 -560.0z" clip-rule="nonzero"></path></clipPath><g clip-path="url(#p.0)"><path fill="#000000" fill-opacity="0.0" d="m0 0l560.0 0l0 560.0l-560.0 0z" fill-rule="nonzero"></path><path fill="#2ecc71" d="m3.0616229 279.49744l0 0c0 -153.23074 124.21807 -277.44882 277.44882 -277.44882l0 0c73.584015 0 144.1542 29.231133 196.18597 81.26288c52.03174 52.031754 81.26288 122.601944 81.26288 196.18594l0 0c0 153.23077 -124.21808 277.44885 -277.44885 277.44885l0 0c-153.23074 0 -277.44882 -124.21808 -277.44882 -277.44885z" fill-rule="nonzero"></path><path fill="#000000" fill-opacity="0.0" d="m240.55511 387.23358l28.409454 -86.236206" fill-rule="nonzero"></path><path stroke="#000000" stroke-width="3.0" stroke-linejoin="round" stroke-linecap="round" d="m240.55511 387.23358l28.409454 -86.236206" fill-rule="nonzero"></path><path fill="#000000" fill-opacity="0.0" d="m280.0 164.46194l0 8.0" fill-rule="nonzero"></path><path stroke="#000000" stroke-width="3.0" stroke-linejoin="round" stroke-linecap="round" d="m280.0 164.46194l0 8.0" fill-rule="nonzero"></path><path fill="#000000" fill-opacity="0.0" d="m289.01968 298.97375l30.425201 85.22833" fill-rule="nonzero"></path><path stroke="#000000" stroke-width="3.0" stroke-linejoin="round" stroke-linecap="round" d="m289.01968 298.97375l30.425201 85.22833" fill-rule="nonzero"></path><path fill="#b7b7b7" d="m146.23622 164.46194l267.5276 0l0 8.0l-267.5276 0z" fill-rule="nonzero"></path><path fill="#000000" fill-opacity="0.0" d="m279.49738 301.7638l0.28347778 85.76376" fill-rule="nonzero"></path><path stroke="#000000" stroke-width="3.0" stroke-linejoin="round" stroke-linecap="round" d="m279.49738 301.7638l0.28347778 85.76376" fill-rule="nonzero"></path><path fill="#ecf0f1" d="m146.23622 172.46194l267.52753 0l0 146.33072l-267.52753 0z" fill-rule="nonzero"></path><path fill="#000000" fill-opacity="0.0" d="m347.50394 256.3701l130.04724 0l0 130.4252l-130.04724 0z" fill-rule="nonzero"></path><path fill="#9b59b6" d="m393.54123 285.8783l0 33.71875q6.0625 -2.546875 11.640625 -3.8125q5.578125 -1.265625 10.59375 -1.265625q12.953125 0 21.6875 9.109375q8.734375 9.09375 8.734375 23.9375q0 16.40625 -9.84375 26.59375q-9.84375 10.171875 -24.609375 10.171875q-9.75 0 -18.78125 -4.359375q-6.390625 -3.03125 -11.640625 -7.546875q-3.125 -2.703125 -3.125 -4.515625q0 -1.46875 0.984375 -2.484375q0.984375 -1.03125 2.296875 -1.03125q1.390625 0 2.953125 1.46875q12.390625 11.5625 26.984375 11.5625q12.0625 0 19.9375 -8.234375q7.875 -8.25 7.875 -21.953125q0 -11.640625 -6.8125 -18.734375q-6.796875 -7.09375 -17.296875 -7.09375q-10.75 0 -21.5 5.65625q-2.625 1.3125 -3.6875 1.3125q-1.484375 0 -2.390625 -0.984375q-0.890625 -0.984375 -0.890625 -2.796875l0 -45.6875l48.0625 0q2.46875 0 3.53125 0.984375q1.0625 0.984375 1.0625 2.546875q0 1.46875 -1.0625 2.453125q-1.0625 0.984375 -3.53125 0.984375l-41.171875 0z" fill-rule="nonzero"></path></g></svg>

