<?xml version="1.0" standalone="yes"?>

<svg version="1.1" viewBox="0.0 0.0 560.0 560.0" fill="none" stroke="none" stroke-linecap="square" stroke-miterlimit="10" xmlns="http://www.w3.org/2000/svg" xmlns:xlink="http://www.w3.org/1999/xlink"><clipPath id="p.0"><path d="m0 0l560.0 0l0 560.0l-560.0 0l0 -560.0z" clip-rule="nonzero"></path></clipPath><g clip-path="url(#p.0)"><path fill="#000000" fill-opacity="0.0" d="m0 0l560.0 0l0 560.0l-560.0 0z" fill-rule="nonzero"></path><path fill="#2ecc71" d="m3.0616229 279.49744l0 0c0 -153.23074 124.21807 -277.44882 277.44882 -277.44882l0 0c73.584015 0 144.1542 29.231133 196.18597 81.26288c52.03174 52.031754 81.26288 122.601944 81.26288 196.18594l0 0c0 153.23077 -124.21808 277.44885 -277.44885 277.44885l0 0c-153.23074 0 -277.44882 -124.21808 -277.44882 -277.44885z" fill-rule="nonzero"></path><path fill="#3498db" d="m107.41732 311.30246l115.05512 0l0 80.566956l-115.05512 0z" fill-rule="nonzero"></path><path fill="#3498db" d="m222.47244 264.78217l115.055115 0l0 127.055115l-115.055115 0z" fill-rule="nonzero"></path><path fill="#3498db" d="m337.52756 333.7261l115.055115 0l0 58.141724l-115.055115 0z" fill-rule="nonzero"></path><path fill="#bdc3c7" d="m128.4567 260.95435l0 0c0 -20.151855 16.336319 -36.488174 36.48819 -36.488174l0 0c9.677261 0 18.958176 3.8442688 25.80104 10.687134c6.842865 6.842865 10.687149 16.12378 10.687149 25.80104l0 0c0 20.151886 -16.336319 36.48819 -36.48819 36.48819l0 0c-20.15187 0 -36.48819 -16.336304 -36.48819 -36.48819z" fill-rule="nonzero"></path><path fill="#f39c12" d="m243.5129 215.49081l0 0c0 -20.15187 16.336319 -36.48819 36.488205 -36.48819l0 0c9.677246 0 18.95816 3.844284 25.801025 10.687149c6.842865 6.8428497 10.687164 16.123764 10.687164 25.80104l0 0c0 20.15187 -16.336334 36.48819 -36.48819 36.48819l0 0c-20.151886 0 -36.488205 -16.336319 -36.488205 -36.48819z" fill-rule="nonzero"></path><path fill="#d35400" d="m358.56653 288.46695l0 0c0 -20.151886 16.336304 -36.48819 36.48819 -36.48819l0 0c9.677246 0 18.95816 3.844284 25.801025 10.687134c6.842865 6.842865 10.687164 16.12378 10.687164 25.801056l0 0c0 20.151855 -16.336334 36.48819 -36.48819 36.48819l0 0c-20.151886 0 -36.48819 -16.336334 -36.48819 -36.48819z" fill-rule="nonzero"></path><path fill="#000000" fill-opacity="0.0" d="m128.4567 224.4672l72.97638 0l0 72.97638l-72.97638 0z" fill-rule="nonzero"></path><path fill="#ffffff" d="m175.7691 273.97287l0 4.0625l-22.71875 0q-0.046875 -1.53125 0.5 -2.9375q0.859375 -2.3125 2.765625 -4.5625q1.921875 -2.25 5.53125 -5.203125q5.59375 -4.59375 7.5625 -7.28125q1.96875 -2.6874847 1.96875 -5.0781097q0 -2.5 -1.796875 -4.21875q-1.78125 -1.734375 -4.671875 -1.734375q-3.046875 0 -4.875 1.828125q-1.828125 1.828125 -1.84375 5.0625l-4.34375 -0.4375q0.453125 -4.859375 3.359375 -7.390625q2.90625 -2.546875 7.796875 -2.546875q4.953125 0 7.828125 2.75q2.890625 2.734375 2.890625 6.78125q0 2.0625 -0.84375 4.0624847q-0.84375 1.984375 -2.8125 4.1875q-1.953125 2.203125 -6.5 6.046875q-3.796875 3.1875 -4.875 4.328125q-1.078125 1.140625 -1.78125 2.28125l16.859375 0z" fill-rule="nonzero"></path><path fill="#000000" fill-opacity="0.0" d="m243.51181 179.00262l72.97638 0l0 72.97638l-72.97638 0z" fill-rule="nonzero"></path><path fill="#ffffff" d="m284.54297 232.57082l-4.21875 0l0 -26.890625q-1.53125 1.453125 -4.0 2.90625q-2.46875 1.453125 -4.4375 2.1875l0 -4.078125q3.53125 -1.671875 6.171875 -4.03125q2.65625 -2.375 3.765625 -4.59375l2.71875 0l0 34.5z" fill-rule="nonzero"></path><path fill="#000000" fill-opacity="0.0" d="m358.56693 251.979l72.97638 0l0 72.97638l-72.97638 0z" fill-rule="nonzero"></path><path fill="#ffffff" d="m383.72308 296.46906l4.21875 -0.5625q0.734375 3.59375 2.46875 5.171875q1.75 1.578125 4.265625 1.578125q2.96875 0 5.015625 -2.0625q2.0625 -2.0625 2.0625 -5.109375q0 -2.90625 -1.90625 -4.78125q-1.890625 -1.890625 -4.828125 -1.890625q-1.1875 0 -2.96875 0.46875l0.46875 -3.703125q0.421875 0.046875 0.671875 0.046875q2.703125 0 4.859375 -1.40625q2.15625 -1.40625 2.15625 -4.34375q0 -2.3125 -1.578125 -3.828125q-1.5625 -1.53125 -4.046875 -1.53125q-2.46875 0 -4.109375 1.546875q-1.640625 1.546875 -2.109375 4.640625l-4.21875 -0.75q0.78125 -4.25 3.515625 -6.578125q2.75 -2.328125 6.828125 -2.328125q2.8125 0 5.171875 1.203125q2.375 1.203125 3.625 3.296875q1.25 2.078125 1.25 4.421875q0 2.234375 -1.203125 4.0625q-1.1875 1.828125 -3.53125 2.90625q3.046875 0.703125 4.734375 2.921875q1.6875 2.203125 1.6875 5.53125q0 4.5 -3.28125 7.640625q-3.28125 3.125 -8.296875 3.125q-4.515625 0 -7.515625 -2.6875q-2.984375 -2.703125 -3.40625 -7.0z" fill-rule="nonzero"></path></g></svg>

