<?xml version="1.0" standalone="yes"?>

<svg version="1.1" viewBox="0.0 0.0 560.0 560.0" fill="none" stroke="none" stroke-linecap="square" stroke-miterlimit="10" xmlns="http://www.w3.org/2000/svg" xmlns:xlink="http://www.w3.org/1999/xlink"><clipPath id="p.0"><path d="m0 0l560.0 0l0 560.0l-560.0 0l0 -560.0z" clip-rule="nonzero"></path></clipPath><g clip-path="url(#p.0)"><path fill="#000000" fill-opacity="0.0" d="m0 0l560.0 0l0 560.0l-560.0 0z" fill-rule="nonzero"></path><path fill="#9b59b6" d="m181.2399 198.10846l143.8425 0l0 46.015747l-143.8425 0z" fill-rule="nonzero"></path><path fill="#ffffff" d="m209.39357 229.65633l0 -17.1875l2.28125 0l0 17.1875l-2.28125 0zm14.324219 -6.734375l0 -2.015625l7.28125 -0.015625l0 6.375q-1.671875 1.328125 -3.453125 2.015625q-1.78125 0.671875 -3.65625 0.671875q-2.53125 0 -4.609375 -1.078125q-2.0625 -1.09375 -3.125 -3.140625q-1.046875 -2.0625 -1.046875 -4.59375q0 -2.5 1.046875 -4.671875q1.046875 -2.171875 3.015625 -3.21875q1.96875 -1.0625 4.53125 -1.0625q1.875 0 3.375 0.609375q1.5 0.59375 2.359375 1.671875q0.859375 1.078125 1.296875 2.8125l-2.046875 0.5625q-0.390625 -1.3125 -0.96875 -2.0625q-0.5625 -0.75 -1.640625 -1.203125q-1.0625 -0.453125 -2.359375 -0.453125q-1.5625 0 -2.703125 0.484375q-1.125 0.46875 -1.828125 1.25q-0.6875 0.765625 -1.078125 1.6875q-0.65625 1.59375 -0.65625 3.453125q0 2.296875 0.78125 3.84375q0.796875 1.546875 2.3125 2.296875q1.515625 0.75 3.203125 0.75q1.484375 0 2.890625 -0.5625q1.40625 -0.5625 2.125 -1.21875l0 -3.1875l-5.046875 0zm10.667969 6.734375l0 -17.1875l7.609375 0q2.296875 0 3.4843903 0.46875q1.203125 0.46875 1.921875 1.640625q0.71875 1.171875 0.71875 2.578125q0 1.828125 -1.1875 3.09375q-1.1875 1.25 -3.6562653 1.59375q0.90625 0.421875 1.375 0.84375q1.0000153 0.921875 1.8906403 2.296875l2.984375 4.671875l-2.859375 0l-2.2812653 -3.578125q-0.984375 -1.546875 -1.640625 -2.359375q-0.640625 -0.828125 -1.15625 -1.15625q-0.5 -0.328125 -1.03125 -0.453125q-0.390625 -0.078125 -1.265625 -0.078125l-2.640625 0l0 7.625l-2.265625 0zm2.265625 -9.59375l4.890625 0q1.5625 0 2.4375 -0.328125q0.875 -0.328125 1.3281403 -1.03125q0.46875 -0.703125 0.46875 -1.546875q0 -1.21875 -0.89064026 -2.0q-0.875 -0.78125 -2.796875 -0.78125l-5.4375 0l0 5.6875zm14.3320465 1.21875q0 -4.265625 2.296875 -6.6875q2.296875 -2.421875 5.9375 -2.421875q2.375 0 4.28125 1.140625q1.921875 1.125 2.921875 3.171875q1.0 2.03125 1.0 4.609375q0 2.609375 -1.0625 4.671875q-1.046875 2.0625 -2.984375 3.125q-1.9375 1.0625 -4.171875 1.0625q-2.421875 0 -4.34375 -1.171875q-1.90625 -1.171875 -2.890625 -3.203125q-0.984375 -2.03125 -0.984375 -4.296875zm2.34375 0.046875q0 3.09375 1.671875 4.890625q1.671875 1.78125 4.1875 1.78125q2.578125 0 4.234375 -1.796875q1.65625 -1.8125 1.65625 -5.125q0 -2.09375 -0.71875 -3.65625q-0.703125 -1.578125 -2.078125 -2.4375q-1.359375 -0.859375 -3.046875 -0.859375q-2.421875 0 -4.171875 1.65625q-1.734375 1.65625 -1.734375 5.546875zm17.136719 8.328125l0 -17.1875l11.59375 0l0 2.03125l-9.3125 0l0 5.328125l8.0625 0l0 2.015625l-8.0625 0l0 7.8125l-2.28125 0zm19.378906 0l0 -7.28125l-6.609375 -9.90625l2.765625 0l3.375 5.1875q0.9375 1.453125 1.75 2.90625q0.78125 -1.34375 1.875 -3.03125l3.328125 -5.0625l2.65625 0l-6.859375 9.90625l0 7.28125l-2.28125 0z" fill-rule="nonzero"></path><path fill="#2ecc71" d="m170.97858 73.725876l164.34647 0l0 76.220474l-164.34647 0z" fill-rule="nonzero"></path><path fill="#ffffff" d="m206.45265 114.05049l1.984375 0.5q-0.625 2.453125 -2.25 3.734375q-1.625 1.28125 -3.96875 1.28125q-2.421875 0 -3.953125 -0.984375q-1.515625 -0.984375 -2.3125 -2.859375q-0.796875 -1.875 -0.796875 -4.03125q0 -2.359375 0.890625 -4.09375q0.90625 -1.75 2.5625 -2.65625q1.65625 -0.90625 3.640625 -0.90625q2.25 0 3.78125 1.15625q1.546875 1.140625 2.15625 3.21875l-1.953125 0.453125q-0.53125 -1.640625 -1.53125 -2.390625q-0.984375 -0.75 -2.5 -0.75q-1.71875 0 -2.890625 0.84375q-1.15625 0.828125 -1.640625 2.234375q-0.46875 1.390625 -0.46875 2.875q0 1.921875 0.5625 3.359375q0.5625 1.421875 1.734375 2.125q1.1875 0.703125 2.5625 0.703125q1.671875 0 2.828125 -0.953125q1.15625 -0.96875 1.5625 -2.859375zm4.3556213 9.453125l-0.203125 -1.71875q0.609375 0.15625 1.0625 0.15625q0.609375 0 0.96875 -0.203125q0.375 -0.203125 0.625 -0.578125q0.171875 -0.28125 0.5625 -1.375q0.046875 -0.15625 0.15625 -0.453125l-4.125 -10.90625l1.984375 0l2.265625 6.3125q0.4375 1.1875 0.796875 2.515625q0.3125 -1.265625 0.75 -2.484375l2.328125 -6.34375l1.84375 0l-4.140625 11.078125q-0.671875 1.796875 -1.03125 2.46875q-0.5 0.90625 -1.140625 1.328125q-0.625 0.4375 -1.515625 0.4375q-0.53125 0 -1.1875 -0.234375zm10.7578125 -15.078125l8.59375 0l0 10.890625l-1.84375 0l0 -9.359375l-4.90625 0l0 9.359375l-1.84375 0l0 -10.890625zm19.002396 7.390625l1.90625 0.234375q-0.453125 1.671875 -1.671875 2.59375q-1.21875 0.921875 -3.125 0.921875q-2.390625 0 -3.796875 -1.46875q-1.390625 -1.484375 -1.390625 -4.140625q0 -2.734375 1.40625 -4.25q1.421875 -1.53125 3.6875 -1.53125q2.1875 0 3.5625 1.5q1.390625 1.484375 1.390625 4.171875q0 0.171875 -0.015625 0.5l-8.125 0q0.109375 1.796875 1.015625 2.75q0.921875 0.953125 2.28125 0.953125q1.015625 0 1.734375 -0.53125q0.71875 -0.546875 1.140625 -1.703125zm-6.0625 -2.984375l6.078125 0q-0.125 -1.375 -0.703125 -2.0625q-0.875 -1.078125 -2.28125 -1.078125q-1.265625 0 -2.140625 0.859375q-0.859375 0.84375 -0.953125 2.28125zm10.471069 10.65625l0 -15.0625l1.671875 0l0 1.421875q0.59375 -0.84375 1.34375 -1.25q0.75 -0.421875 1.8125 -0.421875q1.40625 0 2.46875 0.71875q1.0625 0.71875 1.609375 2.03125q0.546875 1.3125 0.546875 2.859375q0 1.671875 -0.609375 3.015625q-0.59375 1.34375 -1.734375 2.0625q-1.140625 0.703125 -2.40625 0.703125q-0.921875 0 -1.65625 -0.390625q-0.734375 -0.390625 -1.203125 -0.984375l0 5.296875l-1.84375 0zm1.671875 -9.5625q0 2.109375 0.84375 3.125q0.859375 1.0 2.0625 1.0q1.234375 0 2.109375 -1.046875q0.875 -1.046875 0.875 -3.21875q0 -2.09375 -0.859375 -3.125q-0.859375 -1.03125 -2.046875 -1.03125q-1.171875 0 -2.078125 1.109375q-0.90625 1.09375 -0.90625 3.1875zm10.189819 -5.5l4.265625 0q1.5625 0 2.328125 0.265625q0.765625 0.265625 1.3125 0.96875q0.546875 0.6875 0.546875 1.65625q0 0.78125 -0.328125 1.359375q-0.3125 0.578125 -0.96875 0.96875q0.78125 0.25 1.28125 0.953125q0.515625 0.703125 0.515625 1.671875q-0.109375 1.546875 -1.125 2.296875q-1.0 0.75 -2.90625 0.75l-4.921875 0l0 -10.890625zm1.84375 4.578125l1.96875 0q1.1875 0 1.625 -0.109375q0.4375 -0.125 0.78125 -0.5q0.359375 -0.375 0.359375 -0.90625q0 -0.859375 -0.609375 -1.1875q-0.609375 -0.34375 -2.09375 -0.34375l-2.03125 0l0 3.046875zm0 4.796875l2.4375 0q1.5625 0 2.140625 -0.359375q0.59375 -0.375 0.625 -1.265625q0 -0.515625 -0.34375 -0.953125q-0.328125 -0.453125 -0.875 -0.5625q-0.546875 -0.125 -1.75 -0.125l-2.234375 0l0 3.265625zm9.486816 -9.375l1.84375 0l0 8.3125l5.109375 -8.3125l2.0 0l0 10.890625l-1.859375 0l0 -8.25l-5.109375 8.25l-1.984375 0l0 -10.890625zm14.320007 5.96875l0 -1.453125q1.171875 0 1.59375 -0.078125q0.421875 -0.09375 0.796875 -0.5q0.390625 -0.40625 0.390625 -1.03125q0 -0.734375 -0.5 -1.1875q-0.5 -0.453125 -1.296875 -0.453125q-1.546875 0 -2.171875 1.84375l-1.765625 -0.28125q0.828125 -3.078125 3.96875 -3.078125q1.734375 0 2.71875 0.953125q1.0 0.953125 1.0 2.28125q0 1.328125 -1.296875 2.125q0.828125 0.4375 1.234375 1.125q0.40625 0.671875 0.40625 1.609375q0 1.46875 -1.0625 2.390625q-1.0625 0.90625 -2.984375 0.90625q-3.71875 0 -4.3125 -3.3125l1.734375 -0.375q0.234375 1.046875 0.953125 1.625q0.71875 0.578125 1.65625 0.578125q0.9375 0 1.546875 -0.53125q0.625 -0.53125 0.625 -1.359375q0 -0.625 -0.390625 -1.09375q-0.390625 -0.484375 -0.828125 -0.59375q-0.4375 -0.125 -1.59375 -0.125q-0.09375 0 -0.421875 0.015625zm6.6851196 -0.515625q0 -3.03125 1.671875 -4.484375q1.40625 -1.21875 3.421875 -1.21875q2.25 0 3.671875 1.484375q1.4375 1.46875 1.4375 4.0625q0 2.09375 -0.640625 3.296875q-0.625 1.203125 -1.828125 1.875q-1.203125 0.671875 -2.640625 0.671875q-2.28125 0 -3.6875 -1.46875q-1.40625 -1.46875 -1.40625 -4.21875zm1.890625 0q0 2.078125 0.90625 3.125q0.921875 1.046875 2.296875 1.046875q1.375 0 2.28125 -1.046875q0.921875 -1.046875 0.921875 -3.1875q0 -2.03125 -0.921875 -3.0625q-0.90625 -1.046875 -2.28125 -1.046875q-1.375 0 -2.296875 1.046875q-0.90625 1.03125 -0.90625 3.125zm10.658569 9.609375l0 -15.0625l1.671875 0l0 1.421875q0.59375 -0.84375 1.34375 -1.25q0.75 -0.421875 1.8125 -0.421875q1.40625 0 2.46875 0.71875q1.0625 0.71875 1.609375 2.03125q0.546875 1.3125 0.546875 2.859375q0 1.671875 -0.609375 3.015625q-0.59375 1.34375 -1.734375 2.0625q-1.140625 0.703125 -2.40625 0.703125q-0.921875 0 -1.65625 -0.390625q-0.734375 -0.390625 -1.203125 -0.984375l0 5.296875l-1.84375 0zm1.671875 -9.5625q0 2.109375 0.84375 3.125q0.859375 1.0 2.0625 1.0q1.234375 0 2.109375 -1.046875q0.875 -1.046875 0.875 -3.21875q0 -2.09375 -0.859375 -3.125q-0.859375 -1.03125 -2.046875 -1.03125q-1.171875 0 -2.078125 1.109375q-0.90625 1.09375 -0.90625 3.1875z" fill-rule="nonzero"></path><path fill="#f1c40f" d="m88.10517 328.4971l0 0c0 -16.211945 13.142387 -29.35434 29.354332 -29.35434l0 0c7.7852554 0 15.251648 3.092682 20.756653 8.597687c5.505005 5.505005 8.597687 12.971405 8.597687 20.756653l0 0c0 16.211945 -13.142395 29.35434 -29.35434 29.35434l0 0c-16.211945 0 -29.354332 -13.142395 -29.354332 -29.35434z" fill-rule="nonzero"></path><path stroke="#9b59b6" stroke-width="4.0" stroke-linejoin="round" stroke-linecap="butt" d="m88.10517 328.4971l0 0c0 -16.211945 13.142387 -29.35434 29.354332 -29.35434l0 0c7.7852554 0 15.251648 3.092682 20.756653 8.597687c5.505005 5.505005 8.597687 12.971405 8.597687 20.756653l0 0c0 16.211945 -13.142395 29.35434 -29.35434 29.35434l0 0c-16.211945 0 -29.354332 -13.142395 -29.354332 -29.35434z" fill-rule="nonzero"></path><path fill="#f1c40f" d="m155.95404 346.78217l0 0c0 -16.211945 13.14238 -29.35431 29.354324 -29.35431l0 0c7.785263 0 15.251648 3.092682 20.756653 8.597687c5.505005 5.505005 8.597687 12.9713745 8.597687 20.756622l0 0c0 16.211945 -13.14238 29.35434 -29.35434 29.35434l0 0c-16.211945 0 -29.354324 -13.142395 -29.354324 -29.35434z" fill-rule="nonzero"></path><path stroke="#9b59b6" stroke-width="4.0" stroke-linejoin="round" stroke-linecap="butt" d="m155.95404 346.78217l0 0c0 -16.211945 13.14238 -29.35431 29.354324 -29.35431l0 0c7.785263 0 15.251648 3.092682 20.756653 8.597687c5.505005 5.505005 8.597687 12.9713745 8.597687 20.756622l0 0c0 16.211945 -13.14238 29.35434 -29.35434 29.35434l0 0c-16.211945 0 -29.354324 -13.142395 -29.354324 -29.35434z" fill-rule="nonzero"></path><path fill="#f1c40f" d="m223.8029 365.06726l0 0c0 -16.211975 13.142395 -29.35434 29.35434 -29.35434l0 0c7.785263 0 15.251633 3.092682 20.756638 8.597687c5.505005 5.505005 8.597687 12.9713745 8.597687 20.756653l0 0c0 16.211945 -13.1423645 29.35431 -29.354324 29.35431l0 0c-16.211945 0 -29.35434 -13.1423645 -29.35434 -29.35431z" fill-rule="nonzero"></path><path stroke="#9b59b6" stroke-width="4.0" stroke-linejoin="round" stroke-linecap="butt" d="m223.8029 365.06726l0 0c0 -16.211975 13.142395 -29.35434 29.35434 -29.35434l0 0c7.785263 0 15.251633 3.092682 20.756638 8.597687c5.505005 5.505005 8.597687 12.9713745 8.597687 20.756653l0 0c0 16.211945 -13.1423645 29.35431 -29.354324 29.35431l0 0c-16.211945 0 -29.35434 -13.1423645 -29.35434 -29.35431z" fill-rule="nonzero"></path><path fill="#f1c40f" d="m291.65176 346.78217l0 0c0 -16.211945 13.142395 -29.35431 29.35434 -29.35431l0 0c7.785248 0 15.251648 3.092682 20.756653 8.597687c5.505005 5.505005 8.597687 12.9713745 8.597687 20.756622l0 0c0 16.211945 -13.142395 29.35434 -29.35434 29.35434l0 0c-16.211945 0 -29.35434 -13.142395 -29.35434 -29.35434z" fill-rule="nonzero"></path><path stroke="#9b59b6" stroke-width="4.0" stroke-linejoin="round" stroke-linecap="butt" d="m291.65176 346.78217l0 0c0 -16.211945 13.142395 -29.35431 29.35434 -29.35431l0 0c7.785248 0 15.251648 3.092682 20.756653 8.597687c5.505005 5.505005 8.597687 12.9713745 8.597687 20.756622l0 0c0 16.211945 -13.142395 29.35434 -29.35434 29.35434l0 0c-16.211945 0 -29.35434 -13.142395 -29.35434 -29.35434z" fill-rule="nonzero"></path><path fill="#9b59b6" d="m209.05298 265.82263l-6.1354065 34.911743l6.4020996 1.1308594l-12.683472 8.883575l-8.891327 -12.69458l6.4020996 1.1308899l6.1354218 -34.911743z" fill-rule="nonzero"></path><path fill="#f1c40f" d="m359.50064 328.4971l0 0c0 -16.211945 13.142395 -29.35434 29.35434 -29.35434l0 0c7.785248 0 15.251648 3.092682 20.756653 8.597687c5.505005 5.505005 8.597656 12.971405 8.597656 20.756653l0 0c0 16.211945 -13.1423645 29.35434 -29.35431 29.35434l0 0c-16.211945 0 -29.35434 -13.142395 -29.35434 -29.35434z" fill-rule="nonzero"></path><path stroke="#9b59b6" stroke-width="4.0" stroke-linejoin="round" stroke-linecap="butt" d="m359.50064 328.4971l0 0c0 -16.211945 13.142395 -29.35434 29.35434 -29.35434l0 0c7.785248 0 15.251648 3.092682 20.756653 8.597687c5.505005 5.505005 8.597656 12.971405 8.597656 20.756653l0 0c0 16.211945 -13.1423645 29.35434 -29.35431 29.35434l0 0c-16.211945 0 -29.35434 -13.142395 -29.35434 -29.35434z" fill-rule="nonzero"></path><path fill="#3498db" d="m197.6712 433.29782l110.96063 0l0 46.015747l-110.96063 0z" fill-rule="nonzero"></path><path fill="#ffffff" d="m243.08005 458.46008l1.796875 0.453125q-0.5625 2.21875 -2.03125 3.390625q-1.46875 1.15625 -3.59375 1.15625q-2.203125 0 -3.578125 -0.890625q-1.375 -0.90625 -2.09375 -2.59375q-0.71875 -1.703125 -0.71875 -3.65625q0 -2.125 0.796875 -3.703125q0.8125 -1.578125 2.3125 -2.390625q1.5 -0.828125 3.296875 -0.828125q2.046875 0 3.4375 1.046875q1.390625 1.03125 1.9375 2.90625l-1.765625 0.421875q-0.46875 -1.484375 -1.375 -2.15625q-0.90625 -0.6875 -2.265625 -0.6875q-1.5625 0 -2.625 0.75q-1.046875 0.75 -1.484375 2.03125q-0.421875 1.265625 -0.421875 2.609375q0 1.734375 0.5 3.03125q0.515625 1.28125 1.578125 1.921875q1.078125 0.640625 2.3125 0.640625q1.515625 0 2.5625 -0.859375q1.046875 -0.875 1.421875 -2.59375zm3.8010712 4.765625l0 -13.59375l6.03125 0q1.8125 0 2.75 0.359375q0.95310974 0.359375 1.5156097 1.296875q0.5625 0.921875 0.5625 2.046875q0 1.453125 -0.9375 2.453125q-0.92185974 0.984375 -2.8906097 1.25q0.71875 0.34375 1.09375 0.671875q0.78125 0.734375 1.4843597 1.8125l2.375 3.703125l-2.265625 0l-1.7968597 -2.828125q-0.796875 -1.21875 -1.3125 -1.875q-0.5 -0.65625 -0.90625 -0.90625q-0.40625 -0.265625 -0.8125 -0.359375q-0.3125 -0.078125 -1.015625 -0.078125l-2.078125 0l0 6.046875l-1.796875 0zm1.796875 -7.59375l3.859375 0q1.234375 0 1.921875 -0.25q0.703125 -0.265625 1.0625 -0.828125q0.375 -0.5625 0.375 -1.21875q0 -0.96875 -0.703125 -1.578125q-0.703125 -0.625 -2.21875 -0.625l-4.296875 0l0 4.5zm11.582321 7.59375l0 -13.59375l2.71875 0l3.21875 9.625q0.4375 1.34375 0.640625 2.015625q0.234375 -0.75 0.734375 -2.1875l3.25 -9.453125l2.421875 0l0 13.59375l-1.734375 0l0 -11.390625l-3.953125 11.390625l-1.625 0l-3.9375 -11.578125l0 11.578125l-1.734375 0z" fill-rule="nonzero"></path><path fill="#9b59b6" d="m257.60272 269.48087l0 45.02362l6.495575 0l-10.944885 10.944855l-10.944885 -10.944855l6.495575 0l0 -45.02362z" fill-rule="nonzero"></path><path fill="#9b59b6" d="m311.34454 265.07095l6.1827087 34.883026l6.4020996 -1.1308899l-8.87561 12.691803l-12.699188 -8.880798l6.4020996 -1.1308594l-6.1827087 -34.883026z" fill-rule="nonzero"></path><path fill="#9b59b6" d="m353.06326 253.4085l17.53656 30.791245l5.654419 -3.215088l-4.103485 14.941071l-14.95163 -4.106415l5.654419 -3.2150574l-17.53656 -30.79126z" fill-rule="nonzero"></path><path fill="#9b59b6" d="m161.01802 257.93668l-17.78006 30.651947l5.617035 3.2711487l-14.960098 3.9622192l-3.96904 -14.98584l5.617035 3.2711487l17.78006 -30.651947z" fill-rule="nonzero"></path><path fill="#2ecc71" d="m346.44638 103.50387l70.56497 0l0 0c30.311493 0 54.88385 24.572334 54.88385 54.883858l0 252.35818c0 14.556122 -5.782379 28.516052 -16.075104 38.808746c-10.292725 10.292725 -24.252655 16.075134 -38.808746 16.075134l-39.20276 0l0 20.645721l-31.362213 -28.259857l31.362213 -28.259857l0 20.645752l39.20276 0l0 0c21.901184 0 39.65561 -17.754425 39.65561 -39.65564l0 -252.35818l0 0c0 -21.9012 -17.754425 -39.655632 -39.65561 -39.655632l-70.56497 0z" fill-rule="nonzero"></path><path fill="#f1c40f" d="m255.7678 400.5866l0 21.858276l3.8132172 0l-6.425186 6.4252014l-6.4252014 -6.4252014l3.8132324 0l0 -21.858276z" fill-rule="nonzero"></path><path fill="#f1c40f" d="m319.80984 387.38025l-4.3081665 26.07727l3.757141 0.6261902l-7.3768616 5.277069l-5.2845764 -7.387329l3.7571716 0.6261902l4.308197 -26.07724z" fill-rule="nonzero"></path><path fill="#f1c40f" d="m384.2403 378.10605l-15.18277 21.62088l3.1122742 2.1869812l-8.92746 1.5602417l-1.56073 -8.930328l3.1122742 2.1870117l15.18277 -21.62088z" fill-rule="nonzero"></path><path fill="#f1c40f" d="m195.24564 388.09302l4.534424 26.01593l3.7571564 -0.65423584l-5.2273407 7.432892l-7.434082 -5.22818l3.7571564 -0.6542053l-4.534424 -26.01593z" fill-rule="nonzero"></path><path fill="#f1c40f" d="m128.55322 374.52307l13.235748 22.870972l3.2898407 -1.8972778l-2.3381195 8.735321l-8.748505 -2.3416138l3.2898407 -1.8972778l-13.235741 -22.870972z" fill-rule="nonzero"></path><path fill="#000000" fill-opacity="0.0" d="m88.77706 299.14276l58.70867 0l0 59.24411l-58.70867 0z" fill-rule="nonzero"></path><path fill="#000000" d="m121.22514 328.39856q1.21875 1.21875 1.21875 3.09375q0 1.875 -1.21875 3.09375q-1.125 1.125 -3.0 1.125q-1.875 0 -3.0 -1.125q-1.21875 -1.21875 -1.21875 -3.09375q0 -1.875 1.21875 -3.09375q1.125 -1.125 3.0 -1.125q1.875 0 3.0 1.125zm-0.5625 0.75q-0.9375 -0.9375 -2.34375 -0.9375q-1.5 0 -2.4375 0.9375q-0.9375 0.9375 -0.9375 2.4375q0 1.3125 0.9375 2.25q0.9375 0.9375 2.4375 0.9375q1.40625 0 2.34375 -0.9375q0.84375 -0.84375 0.84375 -2.25q0 -1.59375 -0.84375 -2.4375zm-10.96875 7.3125q0.46875 0.375 1.03125 0.375l14.71875 0q0.5625 0 1.03125 -0.375q0.28125 -0.375 0.28125 -1.5q-0.46875 -2.90625 -1.96875 -4.3125q-1.3125 -1.6875 -1.40625 -2.0625q-0.5625 -0.9375 -0.65625 -1.78125q0 -1.125 -0.65625 -1.21875l0 -2.15625l-1.21875 0l0 1.96875q0 0.65625 -0.75 0.65625l-4.125 0q-0.65625 0 -0.65625 -0.65625l0 -1.96875l-1.21875 0l0 2.15625q-0.65625 0.09375 -0.65625 1.21875q-0.09375 0.84375 -0.65625 1.78125q-0.09375 0.375 -1.40625 2.0625q-1.5 1.40625 -1.96875 4.3125q0 1.125 0.28125 1.5zm10.21875 -13.03125l-3.65625 0l0 1.21875q0 0.46875 0.375 0.46875l2.8125 0q0.46875 0 0.46875 -0.46875l0 -1.21875zm-8.625 -0.375q0.65625 -0.5625 1.875 -0.5625l9.84375 0q1.21875 0 1.875 0.5625q0.9375 0.84375 0.9375 1.6875l0 0.75q0 0.84375 0.1875 1.03125q0.09375 0.09375 0.84375 0.09375q0.46875 0 0.75 -0.28125q0.09375 -0.09375 0.09375 -0.75q-0.09375 -2.0625 -1.40625 -3.28125q-1.40625 -1.3125 -3.65625 -1.3125l-9.09375 0q-2.25 0 -3.65625 1.3125q-1.3125 1.21875 -1.40625 3.28125q0 0.65625 0.09375 0.75q0.28125 0.28125 0.75 0.28125q0.75 0 0.84375 -0.09375q0.1875 -0.1875 0.1875 -1.03125l0 -0.75q0 -0.84375 0.9375 -1.6875zm16.125 14.25q-0.46875 0.46875 -1.125 0.46875l-16.40625 0q-0.65625 0 -1.125 -0.46875q-0.375 -0.375 -0.375 -1.6875q0 -3.09375 1.6875 -4.96875q1.40625 -1.59375 1.6875 -2.0625q0.5625 -1.03125 0.5625 -1.96875q0 -1.21875 0.84375 -1.3125l0 -1.875l-0.1875 0q-1.6875 0 -1.6875 1.5l0 0.75q0 1.125 -0.46875 1.59375q-0.28125 0.28125 -1.59375 0.28125q-1.59375 0 -1.59375 -1.125q0 -3.1875 1.5 -4.59375q1.875 -1.78125 4.125 -1.78125l9.65625 0q2.25 0 4.125 1.78125q1.5 1.40625 1.5 4.59375q0 1.125 -1.59375 1.125q-1.3125 0 -1.59375 -0.28125q-0.46875 -0.46875 -0.46875 -1.59375l0 -0.75q0 -1.5 -1.6875 -1.5l-0.1875 0l0 1.875q0.84375 0.09375 0.84375 1.3125q0 0.9375 0.5625 1.96875q0.28125 0.46875 1.6875 2.0625q1.6875 1.875 1.6875 4.96875q0 1.3125 -0.375 1.6875z" fill-rule="nonzero"></path><path fill="#000000" fill-opacity="0.0" d="m156.69571 317.12268l58.708664 0l0 59.24411l-58.708664 0z" fill-rule="nonzero"></path><path fill="#000000" d="m189.1438 346.37848q1.21875 1.21875 1.21875 3.09375q0 1.875 -1.21875 3.09375q-1.125 1.125 -3.0 1.125q-1.875 0 -3.0 -1.125q-1.21875 -1.21875 -1.21875 -3.09375q0 -1.875 1.21875 -3.09375q1.125 -1.125 3.0 -1.125q1.875 0 3.0 1.125zm-0.5625 0.75q-0.9375 -0.9375 -2.34375 -0.9375q-1.5 0 -2.4375 0.9375q-0.9375 0.9375 -0.9375 2.4375q0 1.3125 0.9375 2.25q0.9375 0.9375 2.4375 0.9375q1.40625 0 2.34375 -0.9375q0.84375 -0.84375 0.84375 -2.25q0 -1.59375 -0.84375 -2.4375zm-10.96875 7.3125q0.46875 0.375 1.03125 0.375l14.71875 0q0.5625 0 1.03125 -0.375q0.28125 -0.375 0.28125 -1.5q-0.46875 -2.90625 -1.96875 -4.3125q-1.3125 -1.6875 -1.40625 -2.0625q-0.5625 -0.9375 -0.65625 -1.78125q0 -1.125 -0.65625 -1.21875l0 -2.15625l-1.21875 0l0 1.96875q0 0.65625 -0.75 0.65625l-4.125 0q-0.65625 0 -0.65625 -0.65625l0 -1.96875l-1.21875 0l0 2.15625q-0.65625 0.09375 -0.65625 1.21875q-0.09375 0.84375 -0.65625 1.78125q-0.09375 0.375 -1.40625 2.0625q-1.5 1.40625 -1.96875 4.3125q0 1.125 0.28125 1.5zm10.21875 -13.03125l-3.65625 0l0 1.21875q0 0.46875 0.375 0.46875l2.8125 0q0.46875 0 0.46875 -0.46875l0 -1.21875zm-8.625 -0.375q0.65625 -0.5625 1.875 -0.5625l9.84375 0q1.21875 0 1.875 0.5625q0.9375 0.84375 0.9375 1.6875l0 0.75q0 0.84375 0.1875 1.03125q0.09375 0.09375 0.84375 0.09375q0.46875 0 0.75 -0.28125q0.09375 -0.09375 0.09375 -0.75q-0.09375 -2.0625 -1.40625 -3.28125q-1.40625 -1.3125 -3.65625 -1.3125l-9.09375 0q-2.25 0 -3.65625 1.3125q-1.3125 1.21875 -1.40625 3.28125q0 0.65625 0.09375 0.75q0.28125 0.28125 0.75 0.28125q0.75 0 0.84375 -0.09375q0.1875 -0.1875 0.1875 -1.03125l0 -0.75q0 -0.84375 0.9375 -1.6875zm16.125 14.25q-0.46875 0.46875 -1.125 0.46875l-16.40625 0q-0.65625 0 -1.125 -0.46875q-0.375 -0.375 -0.375 -1.6875q0 -3.09375 1.6875 -4.96875q1.40625 -1.59375 1.6875 -2.0625q0.5625 -1.03125 0.5625 -1.96875q0 -1.21875 0.84375 -1.3125l0 -1.875l-0.1875 0q-1.6875 0 -1.6875 1.5l0 0.75q0 1.125 -0.46875 1.59375q-0.28125 0.28125 -1.59375 0.28125q-1.59375 0 -1.59375 -1.125q0 -3.1875 1.5 -4.59375q1.875 -1.78125 4.125 -1.78125l9.65625 0q2.25 0 4.125 1.78125q1.5 1.40625 1.5 4.59375q0 1.125 -1.59375 1.125q-1.3125 0 -1.59375 -0.28125q-0.46875 -0.46875 -0.46875 -1.59375l0 -0.75q0 -1.5 -1.6875 -1.5l-0.1875 0l0 1.875q0.84375 0.09375 0.84375 1.3125q0 0.9375 0.5625 1.96875q0.28125 0.46875 1.6875 2.0625q1.6875 1.875 1.6875 4.96875q0 1.3125 -0.375 1.6875z" fill-rule="nonzero"></path><path fill="#000000" fill-opacity="0.0" d="m223.39127 335.44296l58.70868 0l0 59.24408l-58.70868 0z" fill-rule="nonzero"></path><path fill="#000000" d="m255.83936 364.69876q1.21875 1.21875 1.21875 3.09375q0 1.875 -1.21875 3.09375q-1.125 1.125 -3.0 1.125q-1.875 0 -3.0 -1.125q-1.21875 -1.21875 -1.21875 -3.09375q0 -1.875 1.21875 -3.09375q1.125 -1.125 3.0 -1.125q1.875 0 3.0 1.125zm-0.5625 0.75q-0.9375 -0.9375 -2.34375 -0.9375q-1.5 0 -2.4375 0.9375q-0.9375 0.9375 -0.9375 2.4375q0 1.3125 0.9375 2.25q0.9375 0.9375 2.4375 0.9375q1.40625 0 2.34375 -0.9375q0.84375 -0.84375 0.84375 -2.25q0 -1.59375 -0.84375 -2.4375zm-10.96875 7.3125q0.46875 0.375 1.03125 0.375l14.71875 0q0.5625 0 1.03125 -0.375q0.28125 -0.375 0.28125 -1.5q-0.46875 -2.90625 -1.96875 -4.3125q-1.3125 -1.6875 -1.40625 -2.0625q-0.5625 -0.9375 -0.65625 -1.78125q0 -1.125 -0.65625 -1.21875l0 -2.15625l-1.21875 0l0 1.96875q0 0.65625 -0.75 0.65625l-4.125 0q-0.65625 0 -0.65625 -0.65625l0 -1.96875l-1.21875 0l0 2.15625q-0.65625 0.09375 -0.65625 1.21875q-0.09375 0.84375 -0.65625 1.78125q-0.09375 0.375 -1.40625 2.0625q-1.5 1.40625 -1.96875 4.3125q0 1.125 0.28125 1.5zm10.21875 -13.03125l-3.65625 0l0 1.21875q0 0.46875 0.375 0.46875l2.8125 0q0.46875 0 0.46875 -0.46875l0 -1.21875zm-8.625 -0.375q0.65625 -0.5625 1.875 -0.5625l9.84375 0q1.21875 0 1.875 0.5625q0.9375 0.84375 0.9375 1.6875l0 0.75q0 0.84375 0.1875 1.03125q0.09375 0.09375 0.84375 0.09375q0.46875 0 0.75 -0.28125q0.09375 -0.09375 0.09375 -0.75q-0.09375 -2.0625 -1.40625 -3.28125q-1.40625 -1.3125 -3.65625 -1.3125l-9.09375 0q-2.25 0 -3.65625 1.3125q-1.3125 1.21875 -1.40625 3.28125q0 0.65625 0.09375 0.75q0.28125 0.28125 0.75 0.28125q0.75 0 0.84375 -0.09375q0.1875 -0.1875 0.1875 -1.03125l0 -0.75q0 -0.84375 0.9375 -1.6875zm16.125 14.25q-0.46875 0.46875 -1.125 0.46875l-16.40625 0q-0.65625 0 -1.125 -0.46875q-0.375 -0.375 -0.375 -1.6875q0 -3.09375 1.6875 -4.96875q1.40625 -1.59375 1.6875 -2.0625q0.5625 -1.03125 0.5625 -1.96875q0 -1.21875 0.84375 -1.3125l0 -1.875l-0.1875 0q-1.6875 0 -1.6875 1.5l0 0.75q0 1.125 -0.46875 1.59375q-0.28125 0.28125 -1.59375 0.28125q-1.59375 0 -1.59375 -1.125q0 -3.1875 1.5 -4.59375q1.875 -1.78125 4.125 -1.78125l9.65625 0q2.25 0 4.125 1.78125q1.5 1.40625 1.5 4.59375q0 1.125 -1.59375 1.125q-1.3125 0 -1.59375 -0.28125q-0.46875 -0.46875 -0.46875 -1.59375l0 -0.75q0 -1.5 -1.6875 -1.5l-0.1875 0l0 1.875q0.84375 0.09375 0.84375 1.3125q0 0.9375 0.5625 1.96875q0.28125 0.46875 1.6875 2.0625q1.6875 1.875 1.6875 4.96875q0 1.3125 -0.375 1.6875z" fill-rule="nonzero"></path><path fill="#000000" fill-opacity="0.0" d="m290.70477 317.67902l58.70865 0l0 59.24408l-58.70865 0z" fill-rule="nonzero"></path><path fill="#000000" d="m323.15286 346.9348q1.21875 1.21875 1.21875 3.09375q0 1.875 -1.21875 3.09375q-1.125 1.125 -3.0 1.125q-1.875 0 -3.0 -1.125q-1.21875 -1.21875 -1.21875 -3.09375q0 -1.875 1.21875 -3.09375q1.125 -1.125 3.0 -1.125q1.875 0 3.0 1.125zm-0.5625 0.75q-0.9375 -0.9375 -2.34375 -0.9375q-1.5 0 -2.4375 0.9375q-0.9375 0.9375 -0.9375 2.4375q0 1.3125 0.9375 2.25q0.9375 0.9375 2.4375 0.9375q1.40625 0 2.34375 -0.9375q0.84375 -0.84375 0.84375 -2.25q0 -1.59375 -0.84375 -2.4375zm-10.96875 7.3125q0.46875 0.375 1.03125 0.375l14.71875 0q0.5625 0 1.03125 -0.375q0.28125 -0.375 0.28125 -1.5q-0.46875 -2.90625 -1.96875 -4.3125q-1.3125 -1.6875 -1.40625 -2.0625q-0.5625 -0.9375 -0.65625 -1.78125q0 -1.125 -0.65625 -1.21875l0 -2.15625l-1.21875 0l0 1.96875q0 0.65625 -0.75 0.65625l-4.125 0q-0.65625 0 -0.65625 -0.65625l0 -1.96875l-1.21875 0l0 2.15625q-0.65625 0.09375 -0.65625 1.21875q-0.09375 0.84375 -0.65625 1.78125q-0.09375 0.375 -1.40625 2.0625q-1.5 1.40625 -1.96875 4.3125q0 1.125 0.28125 1.5zm10.21875 -13.03125l-3.65625 0l0 1.21875q0 0.46875 0.375 0.46875l2.8125 0q0.46875 0 0.46875 -0.46875l0 -1.21875zm-8.625 -0.375q0.65625 -0.5625 1.875 -0.5625l9.84375 0q1.21875 0 1.875 0.5625q0.9375 0.84375 0.9375 1.6875l0 0.75q0 0.84375 0.1875 1.03125q0.09375 0.09375 0.84375 0.09375q0.46875 0 0.75 -0.28125q0.09375 -0.09375 0.09375 -0.75q-0.09375 -2.0625 -1.40625 -3.28125q-1.40625 -1.3125 -3.65625 -1.3125l-9.09375 0q-2.25 0 -3.65625 1.3125q-1.3125 1.21875 -1.40625 3.28125q0 0.65625 0.09375 0.75q0.28125 0.28125 0.75 0.28125q0.75 0 0.84375 -0.09375q0.1875 -0.1875 0.1875 -1.03125l0 -0.75q0 -0.84375 0.9375 -1.6875zm16.125 14.25q-0.46875 0.46875 -1.125 0.46875l-16.40625 0q-0.65625 0 -1.125 -0.46875q-0.375 -0.375 -0.375 -1.6875q0 -3.09375 1.6875 -4.96875q1.40625 -1.59375 1.6875 -2.0625q0.5625 -1.03125 0.5625 -1.96875q0 -1.21875 0.84375 -1.3125l0 -1.875l-0.1875 0q-1.6875 0 -1.6875 1.5l0 0.75q0 1.125 -0.46875 1.59375q-0.28125 0.28125 -1.59375 0.28125q-1.59375 0 -1.59375 -1.125q0 -3.1875 1.5 -4.59375q1.875 -1.78125 4.125 -1.78125l9.65625 0q2.25 0 4.125 1.78125q1.5 1.40625 1.5 4.59375q0 1.125 -1.59375 1.125q-1.3125 0 -1.59375 -0.28125q-0.46875 -0.46875 -0.46875 -1.59375l0 -0.75q0 -1.5 -1.6875 -1.5l-0.1875 0l0 1.875q0.84375 0.09375 0.84375 1.3125q0 0.9375 0.5625 1.96875q0.28125 0.46875 1.6875 2.0625q1.6875 1.875 1.6875 4.96875q0 1.3125 -0.375 1.6875z" fill-rule="nonzero"></path><path fill="#000000" fill-opacity="0.0" d="m359.5015 299.14197l58.70865 0l0 59.24411l-58.70865 0z" fill-rule="nonzero"></path><path fill="#000000" d="m391.94955 328.39777q1.21875 1.21875 1.21875 3.09375q0 1.875 -1.21875 3.09375q-1.125 1.125 -3.0 1.125q-1.875 0 -3.0 -1.125q-1.21875 -1.21875 -1.21875 -3.09375q0 -1.875 1.21875 -3.09375q1.125 -1.125 3.0 -1.125q1.875 0 3.0 1.125zm-0.5625 0.75q-0.9375 -0.9375 -2.34375 -0.9375q-1.5 0 -2.4375 0.9375q-0.9375 0.9375 -0.9375 2.4375q0 1.3125 0.9375 2.25q0.9375 0.9375 2.4375 0.9375q1.40625 0 2.34375 -0.9375q0.84375 -0.84375 0.84375 -2.25q0 -1.59375 -0.84375 -2.4375zm-10.96875 7.3125q0.46875 0.375 1.03125 0.375l14.71875 0q0.5625 0 1.03125 -0.375q0.28125 -0.375 0.28125 -1.5q-0.46875 -2.90625 -1.96875 -4.3125q-1.3125 -1.6875 -1.40625 -2.0625q-0.5625 -0.9375 -0.65625 -1.78125q0 -1.125 -0.65625 -1.21875l0 -2.15625l-1.21875 0l0 1.96875q0 0.65625 -0.75 0.65625l-4.125 0q-0.65625 0 -0.65625 -0.65625l0 -1.96875l-1.21875 0l0 2.15625q-0.65625 0.09375 -0.65625 1.21875q-0.09375 0.84375 -0.65625 1.78125q-0.09375 0.375 -1.40625 2.0625q-1.5 1.40625 -1.96875 4.3125q0 1.125 0.28125 1.5zm10.21875 -13.03125l-3.65625 0l0 1.21875q0 0.46875 0.375 0.46875l2.8125 0q0.46875 0 0.46875 -0.46875l0 -1.21875zm-8.625 -0.375q0.65625 -0.5625 1.875 -0.5625l9.84375 0q1.21875 0 1.875 0.5625q0.9375 0.84375 0.9375 1.6875l0 0.75q0 0.84375 0.1875 1.03125q0.09375 0.09375 0.84375 0.09375q0.46875 0 0.75 -0.28125q0.09375 -0.09375 0.09375 -0.75q-0.09375 -2.0625 -1.40625 -3.28125q-1.40625 -1.3125 -3.65625 -1.3125l-9.09375 0q-2.25 0 -3.65625 1.3125q-1.3125 1.21875 -1.40625 3.28125q0 0.65625 0.09375 0.75q0.28125 0.28125 0.75 0.28125q0.75 0 0.84375 -0.09375q0.1875 -0.1875 0.1875 -1.03125l0 -0.75q0 -0.84375 0.9375 -1.6875zm16.125 14.25q-0.46875 0.46875 -1.125 0.46875l-16.40625 0q-0.65625 0 -1.125 -0.46875q-0.375 -0.375 -0.375 -1.6875q0 -3.09375 1.6875 -4.96875q1.40625 -1.59375 1.6875 -2.0625q0.5625 -1.03125 0.5625 -1.96875q0 -1.21875 0.84375 -1.3125l0 -1.875l-0.1875 0q-1.6875 0 -1.6875 1.5l0 0.75q0 1.125 -0.46875 1.59375q-0.28125 0.28125 -1.59375 0.28125q-1.59375 0 -1.59375 -1.125q0 -3.1875 1.5 -4.59375q1.875 -1.78125 4.125 -1.78125l9.65625 0q2.25 0 4.125 1.78125q1.5 1.40625 1.5 4.59375q0 1.125 -1.59375 1.125q-1.3125 0 -1.59375 -0.28125q-0.46875 -0.46875 -0.46875 -1.59375l0 -0.75q0 -1.5 -1.6875 -1.5l-0.1875 0l0 1.875q0.84375 0.09375 0.84375 1.3125q0 0.9375 0.5625 1.96875q0.28125 0.46875 1.6875 2.0625q1.6875 1.875 1.6875 4.96875q0 1.3125 -0.375 1.6875z" fill-rule="nonzero"></path><path fill="#2ecc71" d="m257.60272 158.52243l0 20.07875l6.495575 0l-10.944885 10.94487l-10.944885 -10.94487l6.495575 0l0 -20.07875z" fill-rule="nonzero"></path></g></svg>

