<?xml version="1.0" standalone="yes"?>

<svg version="1.1" viewBox="0.0 0.0 560.0 560.0" fill="none" stroke="none" stroke-linecap="square" stroke-miterlimit="10" xmlns="http://www.w3.org/2000/svg" xmlns:xlink="http://www.w3.org/1999/xlink"><clipPath id="p.0"><path d="m0 0l560.0 0l0 560.0l-560.0 0l0 -560.0z" clip-rule="nonzero"></path></clipPath><g clip-path="url(#p.0)"><path fill="#000000" fill-opacity="0.0" d="m0 0l560.0 0l0 560.0l-560.0 0z" fill-rule="nonzero"></path><path fill="#2ecc71" d="m157.40382 106.81607l184.8189 0l0 85.732285l-184.8189 0z" fill-rule="nonzero"></path><path fill="#ffffff" d="m203.11412 151.89659l1.984375 0.5q-0.625 2.453125 -2.25 3.734375q-1.625 1.28125 -3.96875 1.28125q-2.421875 0 -3.953125 -0.984375q-1.515625 -0.984375 -2.3125 -2.859375q-0.796875 -1.875 -0.796875 -4.03125q0 -2.359375 0.890625 -4.09375q0.90625 -1.75 2.5625 -2.65625q1.65625 -0.90625 3.640625 -0.90625q2.25 0 3.78125 1.15625q1.546875 1.140625 2.15625 3.21875l-1.953125 0.453125q-0.53125 -1.640625 -1.53125 -2.390625q-0.984375 -0.75 -2.5 -0.75q-1.71875 0 -2.890625 0.84375q-1.15625 0.828125 -1.640625 2.234375q-0.46875 1.390625 -0.46875 2.875q0 1.921875 0.5625 3.359375q0.5625 1.421875 1.734375 2.125q1.1875 0.703125 2.5625 0.703125q1.671875 0 2.828125 -0.953125q1.15625 -0.96875 1.5625 -2.859375zm4.3556213 9.453125l-0.203125 -1.71875q0.609375 0.15625 1.0625 0.15625q0.609375 0 0.96875 -0.203125q0.375 -0.203125 0.625 -0.578125q0.171875 -0.28125 0.5625 -1.375q0.046875 -0.15625 0.15625 -0.453125l-4.125 -10.90625l1.984375 0l2.265625 6.3125q0.4375 1.1875 0.796875 2.515625q0.3125 -1.265625 0.75 -2.484375l2.328125 -6.34375l1.84375 0l-4.140625 11.078125q-0.671875 1.796875 -1.03125 2.46875q-0.5 0.90625 -1.140625 1.328125q-0.625 0.4375 -1.515625 0.4375q-0.53125 0 -1.1875 -0.234375zm10.7578125 -15.078125l8.59375 0l0 10.890625l-1.84375 0l0 -9.359375l-4.90625 0l0 9.359375l-1.84375 0l0 -10.890625zm19.002396 7.390625l1.90625 0.234375q-0.453125 1.671875 -1.671875 2.59375q-1.21875 0.921875 -3.125 0.921875q-2.390625 0 -3.796875 -1.46875q-1.390625 -1.484375 -1.390625 -4.140625q0 -2.734375 1.40625 -4.25q1.421875 -1.53125 3.6875 -1.53125q2.1875 0 3.5625 1.5q1.390625 1.484375 1.390625 4.171875q0 0.171875 -0.015625 0.5l-8.125 0q0.109375 1.796875 1.015625 2.75q0.921875 0.953125 2.28125 0.953125q1.015625 0 1.734375 -0.53125q0.71875 -0.546875 1.140625 -1.703125zm-6.0625 -2.984375l6.078125 0q-0.125 -1.375 -0.703125 -2.0625q-0.875 -1.078125 -2.28125 -1.078125q-1.265625 0 -2.140625 0.859375q-0.859375 0.84375 -0.953125 2.28125zm10.471069 10.65625l0 -15.0625l1.671875 0l0 1.421875q0.59375 -0.84375 1.34375 -1.25q0.75 -0.421875 1.8125 -0.421875q1.40625 0 2.46875 0.71875q1.0625 0.71875 1.609375 2.03125q0.546875 1.3125 0.546875 2.859375q0 1.671875 -0.609375 3.015625q-0.59375 1.34375 -1.734375 2.0625q-1.140625 0.703125 -2.40625 0.703125q-0.921875 0 -1.65625 -0.390625q-0.734375 -0.390625 -1.203125 -0.984375l0 5.296875l-1.84375 0zm1.671875 -9.5625q0 2.109375 0.84375 3.125q0.859375 1.0 2.0625 1.0q1.234375 0 2.109375 -1.046875q0.875 -1.046875 0.875 -3.21875q0 -2.09375 -0.859375 -3.125q-0.859375 -1.03125 -2.046875 -1.03125q-1.171875 0 -2.078125 1.109375q-0.90625 1.09375 -0.90625 3.1875zm10.189819 -5.5l4.265625 0q1.5625 0 2.328125 0.265625q0.765625 0.265625 1.3125 0.96875q0.546875 0.6875 0.546875 1.65625q0 0.78125 -0.328125 1.359375q-0.3125 0.578125 -0.96875 0.96875q0.78125 0.25 1.28125 0.953125q0.515625 0.703125 0.515625 1.671875q-0.109375 1.546875 -1.125 2.296875q-1.0 0.75 -2.90625 0.75l-4.921875 0l0 -10.890625zm1.84375 4.578125l1.96875 0q1.1875 0 1.625 -0.109375q0.4375 -0.125 0.78125 -0.5q0.359375 -0.375 0.359375 -0.90625q0 -0.859375 -0.609375 -1.1875q-0.609375 -0.34375 -2.09375 -0.34375l-2.03125 0l0 3.046875zm0 4.796875l2.4375 0q1.5625 0 2.140625 -0.359375q0.59375 -0.375 0.625 -1.265625q0 -0.515625 -0.34375 -0.953125q-0.328125 -0.453125 -0.875 -0.5625q-0.546875 -0.125 -1.75 -0.125l-2.234375 0l0 3.265625zm9.486816 -9.375l1.84375 0l0 8.3125l5.109375 -8.3125l2.0 0l0 10.890625l-1.859375 0l0 -8.25l-5.109375 8.25l-1.984375 0l0 -10.890625zm14.320007 5.96875l0 -1.453125q1.171875 0 1.59375 -0.078125q0.421875 -0.09375 0.796875 -0.5q0.390625 -0.40625 0.390625 -1.03125q0 -0.734375 -0.5 -1.1875q-0.5 -0.453125 -1.296875 -0.453125q-1.546875 0 -2.171875 1.84375l-1.765625 -0.28125q0.828125 -3.078125 3.96875 -3.078125q1.734375 0 2.71875 0.953125q1.0 0.953125 1.0 2.28125q0 1.328125 -1.296875 2.125q0.828125 0.4375 1.234375 1.125q0.40625 0.671875 0.40625 1.609375q0 1.46875 -1.0625 2.390625q-1.0625 0.90625 -2.984375 0.90625q-3.71875 0 -4.3125 -3.3125l1.734375 -0.375q0.234375 1.046875 0.953125 1.625q0.71875 0.578125 1.65625 0.578125q0.9375 0 1.546875 -0.53125q0.625 -0.53125 0.625 -1.359375q0 -0.625 -0.390625 -1.09375q-0.390625 -0.484375 -0.828125 -0.59375q-0.4375 -0.125 -1.59375 -0.125q-0.09375 0 -0.421875 0.015625zm6.6851196 -0.515625q0 -3.03125 1.671875 -4.484375q1.40625 -1.21875 3.421875 -1.21875q2.25 0 3.671875 1.484375q1.4375 1.46875 1.4375 4.0625q0 2.09375 -0.640625 3.296875q-0.625 1.203125 -1.828125 1.875q-1.203125 0.671875 -2.640625 0.671875q-2.28125 0 -3.6875 -1.46875q-1.40625 -1.46875 -1.40625 -4.21875zm1.890625 0q0 2.078125 0.90625 3.125q0.921875 1.046875 2.296875 1.046875q1.375 0 2.28125 -1.046875q0.921875 -1.046875 0.921875 -3.1875q0 -2.03125 -0.921875 -3.0625q-0.90625 -1.046875 -2.28125 -1.046875q-1.375 0 -2.296875 1.046875q-0.90625 1.03125 -0.90625 3.125zm10.658569 9.609375l0 -15.0625l1.671875 0l0 1.421875q0.59375 -0.84375 1.34375 -1.25q0.75 -0.421875 1.8125 -0.421875q1.40625 0 2.46875 0.71875q1.0625 0.71875 1.609375 2.03125q0.546875 1.3125 0.546875 2.859375q0 1.671875 -0.609375 3.015625q-0.59375 1.34375 -1.734375 2.0625q-1.140625 0.703125 -2.40625 0.703125q-0.921875 0 -1.65625 -0.390625q-0.734375 -0.390625 -1.203125 -0.984375l0 5.296875l-1.84375 0zm1.671875 -9.5625q0 2.109375 0.84375 3.125q0.859375 1.0 2.0625 1.0q1.234375 0 2.109375 -1.046875q0.875 -1.046875 0.875 -3.21875q0 -2.09375 -0.859375 -3.125q-0.859375 -1.03125 -2.046875 -1.03125q-1.171875 0 -2.078125 1.109375q-0.90625 1.09375 -0.90625 3.1875z" fill-rule="nonzero"></path><path fill="#f1c40f" d="m64.21166 280.21753l0 0c0 -18.229736 14.77813 -33.00786 33.007874 -33.00786l0 0c8.754234 0 17.14991 3.4776 23.340088 9.66777c6.190178 6.1901855 9.667778 14.585876 9.667778 23.340088l0 0c0 18.229767 -14.778122 33.007874 -33.007866 33.007874l0 0c-18.229744 0 -33.007874 -14.778107 -33.007874 -33.007874z" fill-rule="nonzero"></path><path fill="#f1c40f" d="m140.50854 300.77924l0 0c0 -18.229736 14.778137 -33.007874 33.007874 -33.007874l0 0c8.754242 0 17.149918 3.4776 23.340103 9.667786c6.1901703 6.1901855 9.66777 14.585846 9.66777 23.340088l0 0c0 18.229736 -14.778122 33.007874 -33.007874 33.007874l0 0c-18.229736 0 -33.007874 -14.778137 -33.007874 -33.007874z" fill-rule="nonzero"></path><path fill="#f1c40f" d="m216.80544 321.3409l0 0c0 -18.229736 14.778137 -33.007874 33.00789 -33.007874l0 0c8.754211 0 17.149902 3.4776306 23.340088 9.667786c6.1901855 6.1901855 9.667786 14.585876 9.667786 23.340088l0 0c0 18.229767 -14.778137 33.007874 -33.007874 33.007874l0 0c-18.229752 0 -33.00789 -14.778107 -33.00789 -33.007874z" fill-rule="nonzero"></path><path fill="#f1c40f" d="m293.10233 300.77924l0 0c0 -18.229736 14.778137 -33.007874 33.007874 -33.007874l0 0c8.754242 0 17.149933 3.4776 23.340088 9.667786c6.1901855 6.1901855 9.667786 14.585846 9.667786 23.340088l0 0c0 18.229736 -14.778107 33.007874 -33.007874 33.007874l0 0c-18.229736 0 -33.007874 -14.778137 -33.007874 -33.007874z" fill-rule="nonzero"></path><path fill="#2ecc71" d="m200.2217 209.74152l-6.9066467 39.274017l7.196533 1.2710724l-14.258713 9.985825l-9.993256 -14.269287l7.196518 1.2710724l6.9066467 -39.274002z" fill-rule="nonzero"></path><path fill="#f1c40f" d="m369.39923 280.21753l0 0c0 -18.229736 14.778137 -33.00786 33.007874 -33.00786l0 0c8.754242 0 17.149902 3.4776 23.340088 9.66777c6.1901855 6.1901855 9.667786 14.585876 9.667786 23.340088l0 0c0 18.229767 -14.778137 33.007874 -33.007874 33.007874l0 0c-18.229736 0 -33.007874 -14.778107 -33.007874 -33.007874z" fill-rule="nonzero"></path><path fill="#3498db" d="m187.42001 398.068l124.787384 0l0 51.716522l-124.787384 0z" fill-rule="nonzero"></path><path fill="#ffffff" d="m239.74223 426.08063l1.796875 0.453125q-0.5625 2.21875 -2.03125 3.390625q-1.46875 1.15625 -3.59375 1.15625q-2.203125 0 -3.578125 -0.890625q-1.375 -0.90625 -2.09375 -2.59375q-0.71875 -1.703125 -0.71875 -3.65625q0 -2.125 0.796875 -3.703125q0.8125 -1.578125 2.3125 -2.390625q1.5 -0.828125 3.296875 -0.828125q2.046875 0 3.4375 1.046875q1.390625 1.03125 1.9375 2.90625l-1.765625 0.421875q-0.46875 -1.484375 -1.375 -2.15625q-0.90625 -0.6875 -2.265625 -0.6875q-1.5625 0 -2.625 0.75q-1.046875 0.75 -1.484375 2.03125q-0.421875 1.265625 -0.421875 2.609375q0 1.734375 0.5 3.03125q0.515625 1.28125 1.578125 1.921875q1.078125 0.640625 2.3125 0.640625q1.515625 0 2.5625 -0.859375q1.046875 -0.875 1.421875 -2.59375zm3.8010712 4.765625l0 -13.59375l6.03125 0q1.8125 0 2.75 0.359375q0.953125 0.359375 1.515625 1.296875q0.5625 0.921875 0.5625 2.046875q0 1.453125 -0.9375 2.453125q-0.921875 0.984375 -2.890625 1.25q0.71875 0.34375 1.09375 0.671875q0.78125 0.734375 1.484375 1.8125l2.375 3.703125l-2.265625 0l-1.796875 -2.828125q-0.796875 -1.21875 -1.3125 -1.875q-0.5 -0.65625 -0.90625 -0.90625q-0.40625 -0.265625 -0.8125 -0.359375q-0.3125 -0.078125 -1.015625 -0.078125l-2.078125 0l0 6.046875l-1.796875 0zm1.796875 -7.59375l3.859375 0q1.234375 0 1.921875 -0.25q0.703125 -0.265625 1.0625 -0.828125q0.375 -0.5625 0.375 -1.21875q0 -0.96875 -0.703125 -1.578125q-0.703125 -0.625 -2.21875 -0.625l-4.296875 0l0 4.5zm11.582336 7.59375l0 -13.59375l2.71875 0l3.21875 9.625q0.4375 1.34375 0.640625 2.015625q0.234375 -0.75 0.734375 -2.1875l3.25 -9.453125l2.421875 0l0 13.59375l-1.734375 0l0 -11.390625l-3.953125 11.390625l-1.625 0l-3.9375 -11.578125l0 11.578125l-1.734375 0z" fill-rule="nonzero"></path><path fill="#2ecc71" d="m254.81877 213.8546l0 50.62993l7.2993317 0l-12.29921 12.299194l-12.29921 -12.299194l7.2993317 0l0 -50.62993z" fill-rule="nonzero"></path><path fill="#2ecc71" d="m315.24982 208.8951l6.953949 39.24527l7.196533 -1.2710724l-9.97757 14.266541l-14.274414 -9.983078l7.196533 -1.2710724l-6.953949 -39.24527z" fill-rule="nonzero"></path><path fill="#2ecc71" d="m362.16336 195.78273l19.72644 34.617508l6.355377 -3.6169586l-4.6083374 16.79982l-16.80899 -4.61084l6.355377 -3.6169586l-19.72644 -34.617508z" fill-rule="nonzero"></path><path fill="#2ecc71" d="m146.20146 200.87851l-19.995865 34.481445l6.317993 3.6730347l-16.823029 4.46344l-4.468315 -16.841385l6.317993 3.6730347l19.995872 -34.481445z" fill-rule="nonzero"></path><path fill="#2ecc71" d="m354.71823 140.30055l79.352356 0l0 0c34.08618 0 61.718506 27.632309 61.718506 61.718506l0 166.22813l0 0c0 16.368774 -6.502472 32.06711 -18.076935 43.64157c-11.574463 11.574463 -27.272797 18.076935 -43.64157 18.076935l-44.084656 0l0 23.216736l-35.2677 -31.779022l35.2677 -31.779022l0 23.216736l44.084656 0c24.62854 0 44.593903 -19.965393 44.593903 -44.593933l0 -166.22813l0 0c0 -24.62854 -19.965363 -44.593918 -44.593903 -44.593918l-79.352356 0z" fill-rule="nonzero"></path><path fill="#f1c40f" d="m252.74852 357.75238l0 24.582672l4.289871 0l-7.228348 7.2283325l-7.228348 -7.2283325l4.2898865 0l0 -24.582672z" fill-rule="nonzero"></path><path fill="#f1c40f" d="m324.76697 346.4272l-4.840088 29.319305l4.224457 0.71029663l-8.293762 5.9248047l-5.942444 -8.318481l4.224457 0.71029663l4.840088 -29.319305z" fill-rule="nonzero"></path><path fill="#f1c40f" d="m397.22366 336.00568l-17.060791 24.310974l3.495453 2.4580383l-10.025818 1.7520142l-1.7536926 -10.035461l3.495453 2.4580383l17.060791 -24.311005z" fill-rule="nonzero"></path><path fill="#f1c40f" d="m184.69295 347.22815l5.117798 29.262634l4.224457 -0.7289734l-5.873703 8.343658l-8.362518 -5.8869934l4.224457 -0.7289734l-5.117798 -29.262634z" fill-rule="nonzero"></path><path fill="#f1c40f" d="m109.69437 331.98212l14.879028 25.702454l3.7010803 -2.1402893l-2.6270676 9.840881l-9.845383 -2.6282654l3.7010727 -2.1402588l-14.879028 -25.702454z" fill-rule="nonzero"></path><path fill="#000000" fill-opacity="0.0" d="m64.96721 247.20967l66.01575 0l0 66.61418l-66.01575 0z" fill-rule="nonzero"></path><path fill="#000000" d="m101.06883 280.1505q1.21875 1.21875 1.21875 3.09375q0 1.875 -1.21875 3.09375q-1.125 1.125 -3.0 1.125q-1.875 0 -3.0 -1.125q-1.21875 -1.21875 -1.21875 -3.09375q0 -1.875 1.21875 -3.09375q1.125 -1.125 3.0 -1.125q1.875 0 3.0 1.125zm-0.5625 0.75q-0.9375 -0.9375 -2.34375 -0.9375q-1.5 0 -2.4375 0.9375q-0.9375 0.9375 -0.9375 2.4375q0 1.3125 0.9375 2.25q0.9375 0.9375 2.4375 0.9375q1.40625 0 2.34375 -0.9375q0.84375 -0.84375 0.84375 -2.25q0 -1.59375 -0.84375 -2.4375zm-10.96875 7.3125q0.46875 0.375 1.03125 0.375l14.71875 0q0.5625 0 1.03125 -0.375q0.28125 -0.375 0.28125 -1.5q-0.46875 -2.90625 -1.96875 -4.3125q-1.3125 -1.6875 -1.40625 -2.0625q-0.5625 -0.9375 -0.65625 -1.78125q0 -1.125 -0.65625 -1.21875l0 -2.15625l-1.21875 0l0 1.96875q0 0.65625 -0.75 0.65625l-4.125 0q-0.65625 0 -0.65625 -0.65625l0 -1.96875l-1.21875 0l0 2.15625q-0.65625 0.09375 -0.65625 1.21875q-0.09375 0.84375 -0.65625 1.78125q-0.09375 0.375 -1.40625 2.0625q-1.5 1.40625 -1.96875 4.3125q0 1.125 0.28125 1.5zm10.21875 -13.03125l-3.65625 0l0 1.21875q0 0.46875 0.375 0.46875l2.8125 0q0.46875 0 0.46875 -0.46875l0 -1.21875zm-8.625 -0.375q0.65625 -0.5625 1.875 -0.5625l9.84375 0q1.21875 0 1.875 0.5625q0.9375 0.84375 0.9375 1.6875l0 0.75q0 0.84375 0.1875 1.03125q0.09375 0.09375 0.84375 0.09375q0.46875 0 0.75 -0.28125q0.09375 -0.09375 0.09375 -0.75q-0.09375 -2.0625 -1.40625 -3.28125q-1.40625 -1.3125 -3.65625 -1.3125l-9.09375 0q-2.25 0 -3.65625 1.3125q-1.3125 1.21875 -1.40625 3.28125q0 0.65625 0.09375 0.75q0.28125 0.28125 0.75 0.28125q0.75 0 0.84375 -0.09375q0.1875 -0.1875 0.1875 -1.03125l0 -0.75q0 -0.84375 0.9375 -1.6875zm16.125 14.25q-0.46875 0.46875 -1.125 0.46875l-16.40625 0q-0.65625 0 -1.125 -0.46875q-0.375 -0.375 -0.375 -1.6875q0 -3.09375 1.6875 -4.96875q1.40625 -1.59375 1.6875 -2.0625q0.5625 -1.03125 0.5625 -1.96875q0 -1.21875 0.84375 -1.3125l0 -1.875l-0.1875 0q-1.6875 0 -1.6875 1.5l0 0.75q0 1.125 -0.46875 1.59375q-0.28125 0.28125 -1.59375 0.28125q-1.59375 0 -1.59375 -1.125q0 -3.1875 1.5 -4.59375q1.875 -1.78125 4.125 -1.78125l9.65625 0q2.25 0 4.125 1.78125q1.5 1.40625 1.5 4.59375q0 1.125 -1.59375 1.125q-1.3125 0 -1.59375 -0.28125q-0.46875 -0.46875 -0.46875 -1.59375l0 -0.75q0 -1.5 -1.6875 -1.5l-0.1875 0l0 1.875q0.84375 0.09375 0.84375 1.3125q0 0.9375 0.5625 1.96875q0.28125 0.46875 1.6875 2.0625q1.6875 1.875 1.6875 4.96875q0 1.3125 -0.375 1.6875z" fill-rule="nonzero"></path><path fill="#000000" fill-opacity="0.0" d="m141.34258 267.42822l66.01575 0l0 66.61417l-66.01575 0z" fill-rule="nonzero"></path><path fill="#000000" d="m177.4442 300.36905q1.21875 1.21875 1.21875 3.09375q0 1.875 -1.21875 3.09375q-1.125 1.125 -3.0 1.125q-1.875 0 -3.0 -1.125q-1.21875 -1.21875 -1.21875 -3.09375q0 -1.875 1.21875 -3.09375q1.125 -1.125 3.0 -1.125q1.875 0 3.0 1.125zm-0.5625 0.75q-0.9375 -0.9375 -2.34375 -0.9375q-1.5 0 -2.4375 0.9375q-0.9375 0.9375 -0.9375 2.4375q0 1.3125 0.9375 2.25q0.9375 0.9375 2.4375 0.9375q1.40625 0 2.34375 -0.9375q0.84375 -0.84375 0.84375 -2.25q0 -1.59375 -0.84375 -2.4375zm-10.96875 7.3125q0.46875 0.375 1.03125 0.375l14.71875 0q0.5625 0 1.03125 -0.375q0.28125 -0.375 0.28125 -1.5q-0.46875 -2.90625 -1.96875 -4.3125q-1.3125 -1.6875 -1.40625 -2.0625q-0.5625 -0.9375 -0.65625 -1.78125q0 -1.125 -0.65625 -1.21875l0 -2.15625l-1.21875 0l0 1.96875q0 0.65625 -0.75 0.65625l-4.125 0q-0.65625 0 -0.65625 -0.65625l0 -1.96875l-1.21875 0l0 2.15625q-0.65625 0.09375 -0.65625 1.21875q-0.09375 0.84375 -0.65625 1.78125q-0.09375 0.375 -1.40625 2.0625q-1.5 1.40625 -1.96875 4.3125q0 1.125 0.28125 1.5zm10.21875 -13.03125l-3.65625 0l0 1.21875q0 0.46875 0.375 0.46875l2.8125 0q0.46875 0 0.46875 -0.46875l0 -1.21875zm-8.625 -0.375q0.65625 -0.5625 1.875 -0.5625l9.84375 0q1.21875 0 1.875 0.5625q0.9375 0.84375 0.9375 1.6875l0 0.75q0 0.84375 0.1875 1.03125q0.09375 0.09375 0.84375 0.09375q0.46875 0 0.75 -0.28125q0.09375 -0.09375 0.09375 -0.75q-0.09375 -2.0625 -1.40625 -3.28125q-1.40625 -1.3125 -3.65625 -1.3125l-9.09375 0q-2.25 0 -3.65625 1.3125q-1.3125 1.21875 -1.40625 3.28125q0 0.65625 0.09375 0.75q0.28125 0.28125 0.75 0.28125q0.75 0 0.84375 -0.09375q0.1875 -0.1875 0.1875 -1.03125l0 -0.75q0 -0.84375 0.9375 -1.6875zm16.125 14.25q-0.46875 0.46875 -1.125 0.46875l-16.40625 0q-0.65625 0 -1.125 -0.46875q-0.375 -0.375 -0.375 -1.6875q0 -3.09375 1.6875 -4.96875q1.40625 -1.59375 1.6875 -2.0625q0.5625 -1.03125 0.5625 -1.96875q0 -1.21875 0.84375 -1.3125l0 -1.875l-0.1875 0q-1.6875 0 -1.6875 1.5l0 0.75q0 1.125 -0.46875 1.59375q-0.28125 0.28125 -1.59375 0.28125q-1.59375 0 -1.59375 -1.125q0 -3.1875 1.5 -4.59375q1.875 -1.78125 4.125 -1.78125l9.65625 0q2.25 0 4.125 1.78125q1.5 1.40625 1.5 4.59375q0 1.125 -1.59375 1.125q-1.3125 0 -1.59375 -0.28125q-0.46875 -0.46875 -0.46875 -1.59375l0 -0.75q0 -1.5 -1.6875 -1.5l-0.1875 0l0 1.875q0.84375 0.09375 0.84375 1.3125q0 0.9375 0.5625 1.96875q0.28125 0.46875 1.6875 2.0625q1.6875 1.875 1.6875 4.96875q0 1.3125 -0.375 1.6875z" fill-rule="nonzero"></path><path fill="#000000" fill-opacity="0.0" d="m216.34256 288.02948l66.01575 0l0 66.61417l-66.01575 0z" fill-rule="nonzero"></path><path fill="#000000" d="m252.44418 320.9703q1.21875 1.21875 1.21875 3.09375q0 1.875 -1.21875 3.09375q-1.125 1.125 -3.0 1.125q-1.875 0 -3.0 -1.125q-1.21875 -1.21875 -1.21875 -3.09375q0 -1.875 1.21875 -3.09375q1.125 -1.125 3.0 -1.125q1.875 0 3.0 1.125zm-0.5625 0.75q-0.9375 -0.9375 -2.34375 -0.9375q-1.5 0 -2.4375 0.9375q-0.9375 0.9375 -0.9375 2.4375q0 1.3125 0.9375 2.25q0.9375 0.9375 2.4375 0.9375q1.40625 0 2.34375 -0.9375q0.84375 -0.84375 0.84375 -2.25q0 -1.59375 -0.84375 -2.4375zm-10.96875 7.3125q0.46875 0.375 1.03125 0.375l14.71875 0q0.5625 0 1.03125 -0.375q0.28125 -0.375 0.28125 -1.5q-0.46875 -2.90625 -1.96875 -4.3125q-1.3125 -1.6875 -1.40625 -2.0625q-0.5625 -0.9375 -0.65625 -1.78125q0 -1.125 -0.65625 -1.21875l0 -2.15625l-1.21875 0l0 1.96875q0 0.65625 -0.75 0.65625l-4.125 0q-0.65625 0 -0.65625 -0.65625l0 -1.96875l-1.21875 0l0 2.15625q-0.65625 0.09375 -0.65625 1.21875q-0.09375 0.84375 -0.65625 1.78125q-0.09375 0.375 -1.40625 2.0625q-1.5 1.40625 -1.96875 4.3125q0 1.125 0.28125 1.5zm10.21875 -13.03125l-3.65625 0l0 1.21875q0 0.46875 0.375 0.46875l2.8125 0q0.46875 0 0.46875 -0.46875l0 -1.21875zm-8.625 -0.375q0.65625 -0.5625 1.875 -0.5625l9.84375 0q1.21875 0 1.875 0.5625q0.9375 0.84375 0.9375 1.6875l0 0.75q0 0.84375 0.1875 1.03125q0.09375 0.09375 0.84375 0.09375q0.46875 0 0.75 -0.28125q0.09375 -0.09375 0.09375 -0.75q-0.09375 -2.0625 -1.40625 -3.28125q-1.40625 -1.3125 -3.65625 -1.3125l-9.09375 0q-2.25 0 -3.65625 1.3125q-1.3125 1.21875 -1.40625 3.28125q0 0.65625 0.09375 0.75q0.28125 0.28125 0.75 0.28125q0.75 0 0.84375 -0.09375q0.1875 -0.1875 0.1875 -1.03125l0 -0.75q0 -0.84375 0.9375 -1.6875zm16.125 14.25q-0.46875 0.46875 -1.125 0.46875l-16.40625 0q-0.65625 0 -1.125 -0.46875q-0.375 -0.375 -0.375 -1.6875q0 -3.09375 1.6875 -4.96875q1.40625 -1.59375 1.6875 -2.0625q0.5625 -1.03125 0.5625 -1.96875q0 -1.21875 0.84375 -1.3125l0 -1.875l-0.1875 0q-1.6875 0 -1.6875 1.5l0 0.75q0 1.125 -0.46875 1.59375q-0.28125 0.28125 -1.59375 0.28125q-1.59375 0 -1.59375 -1.125q0 -3.1875 1.5 -4.59375q1.875 -1.78125 4.125 -1.78125l9.65625 0q2.25 0 4.125 1.78125q1.5 1.40625 1.5 4.59375q0 1.125 -1.59375 1.125q-1.3125 0 -1.59375 -0.28125q-0.46875 -0.46875 -0.46875 -1.59375l0 -0.75q0 -1.5 -1.6875 -1.5l-0.1875 0l0 1.875q0.84375 0.09375 0.84375 1.3125q0 0.9375 0.5625 1.96875q0.28125 0.46875 1.6875 2.0625q1.6875 1.875 1.6875 4.96875q0 1.3125 -0.375 1.6875z" fill-rule="nonzero"></path><path fill="#000000" fill-opacity="0.0" d="m292.03735 268.0538l66.01575 0l0 66.61417l-66.01575 0z" fill-rule="nonzero"></path><path fill="#000000" d="m328.13898 300.99463q1.21875 1.21875 1.21875 3.09375q0 1.875 -1.21875 3.09375q-1.125 1.125 -3.0 1.125q-1.875 0 -3.0 -1.125q-1.21875 -1.21875 -1.21875 -3.09375q0 -1.875 1.21875 -3.09375q1.125 -1.125 3.0 -1.125q1.875 0 3.0 1.125zm-0.5625 0.75q-0.9375 -0.9375 -2.34375 -0.9375q-1.5 0 -2.4375 0.9375q-0.9375 0.9375 -0.9375 2.4375q0 1.3125 0.9375 2.25q0.9375 0.9375 2.4375 0.9375q1.40625 0 2.34375 -0.9375q0.84375 -0.84375 0.84375 -2.25q0 -1.59375 -0.84375 -2.4375zm-10.96875 7.3125q0.46875 0.375 1.03125 0.375l14.71875 0q0.5625 0 1.03125 -0.375q0.28125 -0.375 0.28125 -1.5q-0.46875 -2.90625 -1.96875 -4.3125q-1.3125 -1.6875 -1.40625 -2.0625q-0.5625 -0.9375 -0.65625 -1.78125q0 -1.125 -0.65625 -1.21875l0 -2.15625l-1.21875 0l0 1.96875q0 0.65625 -0.75 0.65625l-4.125 0q-0.65625 0 -0.65625 -0.65625l0 -1.96875l-1.21875 0l0 2.15625q-0.65625 0.09375 -0.65625 1.21875q-0.09375 0.84375 -0.65625 1.78125q-0.09375 0.375 -1.40625 2.0625q-1.5 1.40625 -1.96875 4.3125q0 1.125 0.28125 1.5zm10.21875 -13.03125l-3.65625 0l0 1.21875q0 0.46875 0.375 0.46875l2.8125 0q0.46875 0 0.46875 -0.46875l0 -1.21875zm-8.625 -0.375q0.65625 -0.5625 1.875 -0.5625l9.84375 0q1.21875 0 1.875 0.5625q0.9375 0.84375 0.9375 1.6875l0 0.75q0 0.84375 0.1875 1.03125q0.09375 0.09375 0.84375 0.09375q0.46875 0 0.75 -0.28125q0.09375 -0.09375 0.09375 -0.75q-0.09375 -2.0625 -1.40625 -3.28125q-1.40625 -1.3125 -3.65625 -1.3125l-9.09375 0q-2.25 0 -3.65625 1.3125q-1.3125 1.21875 -1.40625 3.28125q0 0.65625 0.09375 0.75q0.28125 0.28125 0.75 0.28125q0.75 0 0.84375 -0.09375q0.1875 -0.1875 0.1875 -1.03125l0 -0.75q0 -0.84375 0.9375 -1.6875zm16.125 14.25q-0.46875 0.46875 -1.125 0.46875l-16.40625 0q-0.65625 0 -1.125 -0.46875q-0.375 -0.375 -0.375 -1.6875q0 -3.09375 1.6875 -4.96875q1.40625 -1.59375 1.6875 -2.0625q0.5625 -1.03125 0.5625 -1.96875q0 -1.21875 0.84375 -1.3125l0 -1.875l-0.1875 0q-1.6875 0 -1.6875 1.5l0 0.75q0 1.125 -0.46875 1.59375q-0.28125 0.28125 -1.59375 0.28125q-1.59375 0 -1.59375 -1.125q0 -3.1875 1.5 -4.59375q1.875 -1.78125 4.125 -1.78125l9.65625 0q2.25 0 4.125 1.78125q1.5 1.40625 1.5 4.59375q0 1.125 -1.59375 1.125q-1.3125 0 -1.59375 -0.28125q-0.46875 -0.46875 -0.46875 -1.59375l0 -0.75q0 -1.5 -1.6875 -1.5l-0.1875 0l0 1.875q0.84375 0.09375 0.84375 1.3125q0 0.9375 0.5625 1.96875q0.28125 0.46875 1.6875 2.0625q1.6875 1.875 1.6875 4.96875q0 1.3125 -0.375 1.6875z" fill-rule="nonzero"></path><path fill="#000000" fill-opacity="0.0" d="m369.40012 247.20877l66.01575 0l0 66.61417l-66.01575 0z" fill-rule="nonzero"></path><path fill="#000000" d="m405.50174 280.1496q1.21875 1.21875 1.21875 3.09375q0 1.875 -1.21875 3.09375q-1.125 1.125 -3.0 1.125q-1.875 0 -3.0 -1.125q-1.21875 -1.21875 -1.21875 -3.09375q0 -1.875 1.21875 -3.09375q1.125 -1.125 3.0 -1.125q1.875 0 3.0 1.125zm-0.5625 0.75q-0.9375 -0.9375 -2.34375 -0.9375q-1.5 0 -2.4375 0.9375q-0.9375 0.9375 -0.9375 2.4375q0 1.3125 0.9375 2.25q0.9375 0.9375 2.4375 0.9375q1.40625 0 2.34375 -0.9375q0.84375 -0.84375 0.84375 -2.25q0 -1.59375 -0.84375 -2.4375zm-10.96875 7.3125q0.46875 0.375 1.03125 0.375l14.71875 0q0.5625 0 1.03125 -0.375q0.28125 -0.375 0.28125 -1.5q-0.46875 -2.90625 -1.96875 -4.3125q-1.3125 -1.6875 -1.40625 -2.0625q-0.5625 -0.9375 -0.65625 -1.78125q0 -1.125 -0.65625 -1.21875l0 -2.15625l-1.21875 0l0 1.96875q0 0.65625 -0.75 0.65625l-4.125 0q-0.65625 0 -0.65625 -0.65625l0 -1.96875l-1.21875 0l0 2.15625q-0.65625 0.09375 -0.65625 1.21875q-0.09375 0.84375 -0.65625 1.78125q-0.09375 0.375 -1.40625 2.0625q-1.5 1.40625 -1.96875 4.3125q0 1.125 0.28125 1.5zm10.21875 -13.03125l-3.65625 0l0 1.21875q0 0.46875 0.375 0.46875l2.8125 0q0.46875 0 0.46875 -0.46875l0 -1.21875zm-8.625 -0.375q0.65625 -0.5625 1.875 -0.5625l9.84375 0q1.21875 0 1.875 0.5625q0.9375 0.84375 0.9375 1.6875l0 0.75q0 0.84375 0.1875 1.03125q0.09375 0.09375 0.84375 0.09375q0.46875 0 0.75 -0.28125q0.09375 -0.09375 0.09375 -0.75q-0.09375 -2.0625 -1.40625 -3.28125q-1.40625 -1.3125 -3.65625 -1.3125l-9.09375 0q-2.25 0 -3.65625 1.3125q-1.3125 1.21875 -1.40625 3.28125q0 0.65625 0.09375 0.75q0.28125 0.28125 0.75 0.28125q0.75 0 0.84375 -0.09375q0.1875 -0.1875 0.1875 -1.03125l0 -0.75q0 -0.84375 0.9375 -1.6875zm16.125 14.25q-0.46875 0.46875 -1.125 0.46875l-16.40625 0q-0.65625 0 -1.125 -0.46875q-0.375 -0.375 -0.375 -1.6875q0 -3.09375 1.6875 -4.96875q1.40625 -1.59375 1.6875 -2.0625q0.5625 -1.03125 0.5625 -1.96875q0 -1.21875 0.84375 -1.3125l0 -1.875l-0.1875 0q-1.6875 0 -1.6875 1.5l0 0.75q0 1.125 -0.46875 1.59375q-0.28125 0.28125 -1.59375 0.28125q-1.59375 0 -1.59375 -1.125q0 -3.1875 1.5 -4.59375q1.875 -1.78125 4.125 -1.78125l9.65625 0q2.25 0 4.125 1.78125q1.5 1.40625 1.5 4.59375q0 1.125 -1.59375 1.125q-1.3125 0 -1.59375 -0.28125q-0.46875 -0.46875 -0.46875 -1.59375l0 -0.75q0 -1.5 -1.6875 -1.5l-0.1875 0l0 1.875q0.84375 0.09375 0.84375 1.3125q0 0.9375 0.5625 1.96875q0.28125 0.46875 1.6875 2.0625q1.6875 1.875 1.6875 4.96875q0 1.3125 -0.375 1.6875z" fill-rule="nonzero"></path></g></svg>

